<?xml version="1.0" encoding="UTF-8" standalone="no"?>
<!-- Created with Inkscape (http://www.inkscape.org/) -->

<svg
   xmlns:i="http://ns.adobe.com/AdobeIllustrator/10.0/"
   xmlns:dc="http://purl.org/dc/elements/1.1/"
   xmlns:cc="http://creativecommons.org/ns#"
   xmlns:rdf="http://www.w3.org/1999/02/22-rdf-syntax-ns#"
   xmlns:svg="http://www.w3.org/2000/svg"
   xmlns="http://www.w3.org/2000/svg"
   xmlns:sodipodi="http://sodipodi.sourceforge.net/DTD/sodipodi-0.dtd"
   xmlns:inkscape="http://www.inkscape.org/namespaces/inkscape"
   width="177.70506"
   height="49.606297"
   id="svg2516"
   sodipodi:version="0.32"
   inkscape:version="0.48.5 r10040"
   version="1.0"
   sodipodi:docname="logo_2.svg"
   inkscape:output_extension="org.inkscape.output.svg.inkscape"
   inkscape:export-filename="/home/ivan/svn/carabos/dissenys/vitables/logo.png"
   inkscape:export-xdpi="90"
   inkscape:export-ydpi="90">
  <defs
     id="defs2518">
    <filter
       inkscape:collect="always"
       x="-0.081248641"
       width="1.1624973"
       y="-0.12926643"
       height="1.2585328"
       id="filter4087"
       color-interpolation-filters="sRGB">
      <feGaussianBlur
         inkscape:collect="always"
         stdDeviation="11.364433"
         id="feGaussianBlur4089" />
    </filter>
    <inkscape:perspective
       sodipodi:type="inkscape:persp3d"
       inkscape:vp_x="0 : 110 : 1"
       inkscape:vp_y="0 : 1000 : 0"
       inkscape:vp_z="500 : 110 : 1"
       inkscape:persp3d-origin="250 : 73.333333 : 1"
       id="perspective39" />
    <filter
       id="filter12589"
       color-interpolation-filters="sRGB">
      <feGaussianBlur
         id="feGaussianBlur12591"
         stdDeviation="4.2009766"
         inkscape:collect="always" />
    </filter>
    <clipPath
       id="XMLID_39_">
      <path
         id="use2587"
         d="m 198.279,24.74 c 0,-6.552 5.311,-11.864 11.863,-11.864 6.552,0 11.863,5.312 11.863,11.864 0,6.552 -5.311,11.864 -11.863,11.864 -6.552,0 -11.863,-5.312 -11.863,-11.864 l 0,0 z"
         inkscape:connector-curvature="0" />
    </clipPath>
  </defs>
  <sodipodi:namedview
     inkscape:document-units="mm"
     pagecolor="#ffffff"
     bordercolor="#666666"
     borderopacity="1.0"
     inkscape:pageopacity="0.0"
     inkscape:pageshadow="2"
     inkscape:zoom="1.86"
     inkscape:cx="25.164643"
     inkscape:cy="23.022002"
     inkscape:current-layer="layer1"
     id="namedview2520"
     height="220px"
     width="500px"
     inkscape:window-width="1366"
     inkscape:window-height="705"
     inkscape:window-x="-8"
     inkscape:window-y="-8"
     showgrid="false"
     units="mm"
     fit-margin-top="0"
     fit-margin-left="0"
     fit-margin-right="0"
     fit-margin-bottom="0"
     inkscape:window-maximized="1" />
  <metadata
     id="metadata2522">
    <rdf:RDF>
      <cc:Work
         rdf:about="">
        <dc:format>image/svg+xml</dc:format>
        <dc:type
           rdf:resource="http://purl.org/dc/dcmitype/StillImage" />
        <dc:title />
      </cc:Work>
    </rdf:RDF>
  </metadata>
  <g
     inkscape:label="Layer 1"
     inkscape:groupmode="layer"
     id="layer1"
     transform="translate(-296.55441,-84.384354)">
    <g
       id="g2497"
       transform="matrix(0.28644517,0,0,0.33007179,293.99997,57.749433)">
      <path
         inkscape:connector-curvature="0"
         transform="matrix(0.9063874,0,0,0.9063874,5.7950732,22.881841)"
         id="path2926"
         d="m 115.7775,122.89449 c -1.21562,0 -2.39278,0.15318 -3.5,0.46875 -1.07978,0.31144 -2.02846,0.78304 -2.875,1.4375 -1.70679,1.13878 -2.875,2.70325 -2.875,4.71875 0,2.1678 1.14228,3.84721 3,5.03125 1.80422,1.14702 3.9427,1.68749 6.34375,1.6875 2.36949,0 4.52139,-0.5725 6.375,-1.78125 1.73972,-1.16212 2.875,-2.7912 2.875,-4.84375 0,-2.11155 -1.2336,-3.74521 -3.0625,-4.9375 -1.80285,-1.22796 -3.91178,-1.78125 -6.28125,-1.78125 z m 141.0625,0.0937 0.0937,52.59375 c 0,2.04981 0.43028,3.97003 1.3125,5.65625 0.90142,1.63272 2.38341,3.16545 4.3125,4.59375 4.00083,3.0555 8.54712,4.5625 13.625,4.5625 l 24.15625,0 c 2.47102,0 5.03018,-0.41094 7.65625,-1.1875 7.38698,-2.32284 11.81249,-6.40728 11.8125,-12.59375 l 0,-24.125 -0.46875,-2.3125 c -0.92475,-3.7813 -3.14419,-6.61119 -6.625,-8.3125 -3.37931,-1.726 -8.10166,-2.50001 -14,-2.5 l -27.4375,0 0,-16.375 -14.4375,0 z m 69.125,0 0,67.40625 14.25,0 0,-67.40625 -14.25,0 z m -312.437498,1.125 33.375,61.15625 c 1.056456,2.03608 2.485266,3.62127 4.28125,4.5625 1.720523,0.81635 3.911903,1.18749 6.40625,1.1875 5.014749,0 8.793948,-1.81365 10.84375,-5.75 l 33.281248,-61.15625 -15.9375,0 -28.187498,52.125 -28.125,-52.125 -15.9375,0 z m 114.624998,0 0,10 29.53125,0 0,56.59375 14.96875,0 0,-56.59375 29.65625,0 0,-10 -74.15625,0 z m -19.59375,15.25 0,51.03125 14.25,0 0,-51.03125 -14.25,0 z m 78.9375,0 0,10.09375 45.4375,0.125 c 1.18405,0 2.1844,0.33974 3.0625,1.03125 0.4953,0.4953 0.62499,0.87299 0.625,1.21875 l 0,2.28125 -29.34375,0 c -5.88874,0 -10.75423,1.30168 -14.375,4.09375 -3.66331,2.8058 -5.40626,6.99986 -5.40625,12.1875 l 0.3125,5.8125 c 0,5.37835 3.28415,9.30823 9,11.84375 3.60843,1.5545 7.13106,2.34375 10.5625,2.34375 l 24.5625,0 c 6.53909,0 11.87691,-2.15386 15.875,-6.59375 1.95925,-2.1088 3.06387,-4.45079 3.0625,-7 l 0,-25.375 -0.40625,-2.5625 c -1.20875,-3.48084 -3.33747,-6.01471 -6.5,-7.4375 -2.95809,-1.442 -6.979,-2.06251 -11.9375,-2.0625 l -44.53125,0 z m 182.46875,0 c -14.71911,0 -23.59375,4.59334 -23.59375,15.125 l 0,22.03125 c 0,3.50966 1.48339,6.47013 4.3125,8.84375 3.98574,3.45476 9.59261,5.03126 16.5625,5.03125 l 42.28125,0 0,-10.09375 -41.5,0 c -3.01709,0 -4.72176,-0.39206 -5.53125,-0.875 -0.65582,-0.5008 -1.36598,-1.62152 -1.875,-4.21875 l 0,-0.90625 48.09375,-14.84375 0,-6.59375 c 0,-4.38911 -1.99523,-7.81451 -5.84375,-10.125 -3.67155,-2.32146 -8.59356,-3.37501 -14.625,-3.375 l -18.28125,0 z m 62.4375,0 c -5.09571,0 -9.29966,0.93099 -12.4375,3 -3.23113,2.12802 -4.87499,5.22738 -4.875,9.09375 l 0,6.25 c 0,2.13077 0.75999,3.99015 2.25,5.5625 1.77128,2.07725 4.02348,3.51445 6.78125,4.40625 2.72622,0.88632 6.20922,1.3125 10.40625,1.3125 l 16.6875,0 c 2.7468,0 4.32405,0.44297 5.09375,1 0.62975,0.41847 1.125,1.14519 1.125,2.5625 l 0,3.75 c 0,1.06195 -0.22102,1.7198 -0.40625,2.03125 -0.16053,0.31693 -0.52953,0.74525 -1.125,1.09375 -0.94808,0.61329 -1.78823,0.875 -2.46875,0.875 l -3.03125,0 -35.625,0 0,10.09375 40.28125,0 c 2.98553,0 6.20898,-0.79946 9.59375,-2.28125 1.74659,-0.90827 3.23943,-1.95193 4.1875,-3.125 1.77129,-1.99082 2.84376,-4.13175 2.84375,-6.375 l 0,-7.65625 c 0,-3.18035 -1.5372,-5.86925 -4.28125,-8 -2.70837,-2.11155 -6.28742,-3.46444 -10.6875,-4.1875 l -3.46875,-0.0937 -18.3125,0 c -2.35577,0 -3.85101,-0.63227 -4.78125,-1.5625 -0.62977,-0.57899 -0.81251,-1.0753 -0.8125,-1.4375 l 0,-3.53125 c 0,-1.31303 0.45653,-1.7262 1.15625,-1.9375 1.61075,-0.53784 2.58397,-0.71874 3.03125,-0.71875 l 2.21875,0 36.125,0 0,-10.125 -39.46875,0 z m -154.28125,10.125 20.1875,0 c 2.99102,0 4.86002,0.5163 5.84375,1.21875 0.82597,0.55294 1.375,1.48422 1.375,3.25 l -0.125,22.28125 c -0.68602,2.27207 -2.09346,3.50044 -4.5,3.875 l -1.28125,0.1875 -21.40625,0 c -1.31578,0 -2.8025,-0.35498 -4.53125,-1.15625 -1.70956,-0.88084 -2.40626,-2.06377 -2.40625,-3.75 l 0,-21.625 c 0,-1.87281 0.48855,-2.77178 0.96875,-3.1875 0.59959,-0.52411 2.02366,-0.99999 4.625,-1 l 1.25,-0.0937 z m 88.65625,0 c 0.33596,-0.016 0.69068,0 1.0625,0 l 20.125,0 c 2.98965,0 4.69902,0.42298 5.46875,0.9375 0.59271,0.36085 1.03125,1.01426 1.03125,2.34375 l -33.84375,10.46875 0,-8.5625 c 0,-2.10607 0.60849,-3.2803 1.46875,-3.9375 0.85597,-0.65188 2.3358,-1.13817 4.6875,-1.25 z m -157.5,14.75 1.3125,0 17.09375,0 1.21875,0 c 2.6823,0 4.36229,0.39175 5.25,0.90625 0.84654,0.44454 1.61945,1.27169 2.46875,3.375 l 0,7.6875 -0.28125,0.6875 c -0.6325,1.55452 -1.40894,2.33869 -2.25,2.71875 -0.92886,0.39102 -3.03167,0.6875 -6.625,0.6875 l -16.65625,0 c -3.46986,0 -5.64826,-0.31096 -6.75,-0.75 -0.86025,-0.42945 -1.60682,-1.21516 -2.21875,-2.5625 l -0.0937,-0.65625 0,-7.8125 0.0937,-0.8125 c 0.56117,-1.3583 1.27634,-2.14677 2.0625,-2.5625 0.97414,-0.53646 2.70229,-0.90626 5.375,-0.90625 z"
         style="fill:#666666;fill-opacity:1;fill-rule:evenodd;stroke:none;stroke-width:0.25pt;marker:none;visibility:visible;display:inline;overflow:visible;filter:url(#filter12589);enable-background:accumulate" />
      <path
         inkscape:connector-curvature="0"
         style="fill:#ff9600"
         id="path2535"
         d="m 63.270286,184.51194 c -1.857915,3.56786 -5.308873,5.1982 -9.854179,5.1982 -2.260843,0 -4.245606,-0.33329 -5.805066,-1.07321 -1.627861,-0.85311 -2.909995,-2.27826 -3.867553,-4.12374 l -30.250268,-55.4441 14.44676,0 25.478607,47.2414 25.565666,-47.2414 14.441787,0 -30.155754,55.44285 0,0 z"
         i:knockout="Off" />
      <polygon
         transform="matrix(1.2435873,0,0,1.2435873,0.4679494,-66.304775)"
         style="fill:#ff9600"
         id="polygon2537"
         points="79.731,205.427 79.731,205.427 79.731,168.226 90.122,168.226 90.122,205.427 "
         i:knockout="Off" />
      <polygon
         transform="matrix(1.2435873,0,0,1.2435873,0.4679494,-66.304775)"
         style="fill:#ff9600"
         id="polygon2539"
         points="94.02,157.104 148.063,157.104 148.063,164.401 126.457,164.401 126.457,164.401 126.457,205.647 115.552,205.647 115.552,164.403 94.02,164.401 "
         i:knockout="Off" />
      <path
         inkscape:connector-curvature="0"
         style="fill:#ff9600;fill-rule:evenodd"
         id="path2541"
         d="m 225.84322,183.17384 c -3.62383,4.02425 -8.47132,5.98664 -14.39827,5.98664 l -22.25772,0 c -3.1102,0 -6.31369,-0.73123 -9.58433,-2.14021 -5.18078,-2.29816 -8.143,-5.85606 -8.143,-10.73092 l -0.27484,-5.27281 c 0,-4.70201 1.57563,-8.49867 4.896,-11.04181 3.28184,-2.5307 7.67667,-3.70217 13.01415,-3.70217 l 26.6053,0 0,-2.05938 c 0,-0.31337 -0.11689,-0.67775 -0.56583,-1.12668 -0.79589,-0.62677 -1.70372,-0.9302 -2.77693,-0.9302 l -41.17393,-0.0945 0,-9.16399 40.35067,0 c 4.49433,0 8.12933,0.57827 10.81051,1.88528 2.86647,1.2896 4.82139,3.58029 5.91699,6.73527 l 0.35939,2.31432 0,23.00636 c 0.001,2.31058 -1.00233,4.42344 -2.77816,6.33483 l 0,0 z m -10.14271,-6.87579 0,-6.97031 c -0.76978,-1.90641 -1.47364,-2.66749 -2.24094,-3.07041 -0.8046,-0.46635 -2.33173,-0.81828 -4.76293,-0.81828 l -1.10058,0 -15.47893,0 -1.19136,0 c -2.42251,0 -3.98694,0.3395 -4.8699,0.82574 -0.71256,0.3768 -1.37415,1.08565 -1.88279,2.3168 l -0.0684,0.74615 0,7.07104 0.0609,0.60189 c 0.55464,1.22121 1.25355,1.94249 2.03327,2.33174 0.9986,0.39795 2.95601,0.66531 6.10104,0.66531 l 15.11208,0 c 3.25696,0 5.14844,-0.25244 5.99035,-0.60686 0.76232,-0.34448 1.46744,-1.07073 2.04073,-2.47973 l 0.25742,-0.61308 0,0 z"
         clip-rule="evenodd"
         i:knockout="Off" />
      <path
         inkscape:connector-curvature="0"
         style="fill:#ff9600;fill-rule:evenodd"
         id="path2543"
         d="m 280.39939,188.08975 c -2.38023,0.70386 -4.7045,1.07073 -6.9442,1.07073 l -21.8921,0 c -4.60252,0 -8.73371,-1.38163 -12.36002,-4.1511 -1.74849,-1.29458 -3.08907,-2.67868 -3.9061,-4.15856 -0.79963,-1.52836 -1.18515,-3.25198 -1.18515,-5.1099 l -0.097,-47.67914 13.10866,0 0,14.836 24.86428,0 c 5.34618,0 9.61293,0.70387 12.67589,2.2683 3.15497,1.54205 5.18575,4.11007 6.02393,7.5374 l 0.40044,2.10041 0,21.84982 c 0,5.60734 -3.99316,9.33064 -10.68863,11.43604 l 0,0 z m -2.23225,-31.9515 c 0,-1.60049 -0.51981,-2.46726 -1.26845,-2.96844 -0.89165,-0.63671 -2.56676,-1.10555 -5.27778,-1.10555 l -18.31805,0 -1.13167,0.0895 c -2.35783,0 -3.64867,0.43775 -4.19213,0.91279 -0.43525,0.37681 -0.85558,1.19012 -0.85558,2.88761 l 0,19.60143 c 0,1.52837 0.62427,2.60407 2.17379,3.40245 1.56691,0.72626 2.90501,1.03716 4.09762,1.03716 l 19.40244,0 1.16649,-0.16788 c 2.18125,-0.3395 3.46091,-1.45003 4.0827,-3.50941 l 0.12062,-20.1797 0,0 z"
         clip-rule="evenodd"
         i:knockout="Off" />
      <polygon
         transform="matrix(1.2435873,0,0,1.2435873,0.4679494,-66.304775)"
         style="fill:#ff9600"
         id="polygon2545"
         points="238.184,205.427 238.184,205.427 238.184,156.296 248.574,156.296 248.574,205.427 "
         i:knockout="Off" />
      <path
         inkscape:connector-curvature="0"
         style="fill:#ff9600;fill-rule:evenodd"
         id="path2547"
         d="m 334.08878,189.16172 c -6.31743,0 -11.38628,-1.44256 -14.9989,-4.57392 -2.56428,-2.15141 -3.91979,-4.84128 -3.91979,-8.02238 l 0,-19.96828 c 0,-9.54577 8.04973,-13.69936 21.39094,-13.69936 l 16.57702,0 c 5.46681,0 9.92382,0.96129 13.25167,3.06544 3.48825,2.09421 5.30016,5.18826 5.30016,9.16649 l 0,5.97295 -43.59892,13.46307 0,0.80834 c 0.46136,2.35411 1.10057,3.37882 1.695,3.83274 0.73372,0.43773 2.29815,0.78967 5.03281,0.78967 l 37.60607,0 0,9.164 -38.33606,0 0,0.001 z m 24.68024,-34.12155 c 0,-1.20504 -0.41039,-1.78579 -0.94762,-2.11286 -0.69766,-0.46634 -2.24468,-0.8618 -4.95445,-0.8618 l -18.22851,0 c -2.6961,0 -4.33265,0.48127 -5.21933,1.15653 -0.77973,0.59569 -1.32566,1.649 -1.32566,3.55791 l 0,7.74631 30.67557,-9.48609 0,0 z"
         clip-rule="evenodd"
         i:knockout="Off" />
      <path
         inkscape:connector-curvature="0"
         style="fill:#ff9600"
         id="path2549"
         d="m 396.19104,152.06551 -2.01586,0 c -0.4054,0 -1.28711,0.17534 -2.74708,0.66283 -0.63423,0.19151 -1.05207,0.57081 -1.05207,1.76092 l 0,3.20597 c 0,0.3283 0.15544,0.76481 0.72625,1.2896 0.84315,0.84315 2.21732,1.40898 4.35256,1.40898 l 16.60189,0.002 3.14751,0.092 c 3.98819,0.65538 7.21157,1.88528 9.6664,3.79917 2.48719,1.93128 3.88374,4.35753 3.88374,7.24015 l 0,6.96161 c 0,2.03326 -0.97622,3.96456 -2.5817,5.76901 -0.85932,1.06327 -2.19119,2.00839 -3.77429,2.83164 -3.06792,1.34307 -6.00901,2.07182 -8.71506,2.07182 l -36.50425,0 0,-9.164 32.28974,0 2.74708,0 c 0.61683,0 1.37292,-0.22882 2.23225,-0.7847 0.53971,-0.31587 0.87672,-0.70636 1.02222,-0.99363 0.16789,-0.28229 0.36188,-0.87673 0.36188,-1.83927 l 0,-3.38877 c 0,-1.28463 -0.42779,-1.94745 -0.99859,-2.32675 -0.69766,-0.50489 -2.1427,-0.92025 -4.63237,-0.92025 l -15.11207,0 c -3.80414,0 -6.97279,-0.37184 -9.4438,-1.17519 -2.49961,-0.80833 -4.55154,-2.11783 -6.157,-4.00062 -1.35053,-1.42515 -2.03575,-3.10897 -2.03575,-5.04027 l 0,-5.67822 c 0,-3.50442 1.50846,-6.29752 4.43712,-8.22633 2.84409,-1.87532 6.65567,-2.72469 11.27436,-2.72469 l 35.77054,0 0,9.16648 -32.74365,0 0,0 z"
         i:knockout="Off" />
      <path
         inkscape:connector-curvature="0"
         style="fill:#0c479d"
         id="path2799"
         d="m 106.26483,140.06614 c -2.17627,0 -4.12373,-0.47878 -5.75905,-1.51843 -1.683819,-1.07321 -2.715993,-2.61153 -2.715993,-4.5764 0,-1.82682 1.048343,-3.24949 2.595363,-4.28167 0.7673,-0.59319 1.64403,-1.01477 2.62272,-1.29705 1.00358,-0.28604 2.06187,-0.42283 3.16369,-0.42283 2.14768,0 4.06156,0.51485 5.69564,1.62785 1.65769,1.08068 2.78065,2.5531 2.78065,4.46698 0,1.86041 -1.0272,3.32534 -2.60406,4.37867 -1.6801,1.09559 -3.63129,1.62288 -5.77896,1.62288 l 0,0 z"
         i:knockout="Off" />
    </g>
    <g
       id="g3064"
       transform="matrix(1.1191793,0,0,1.1068873,-52.720008,-8.735776)">
      <g
         transform="matrix(0.24615515,0,0,0.28364545,364.67332,85.270437)"
         id="g2481">
        <g
           id="g2478">
          <path
             transform="matrix(0.4457136,-0.1446565,0.1446565,0.4457136,200.47195,78.157952)"
             id="path2958"
             d="m 386.97046,30.131149 -0.40625,0.125 c -10e-4,-4.4e-4 -0.0625,-0.03125 -0.0625,-0.03125 l -0.0312,0.0625 -75.34375,22.46875 c -2.88947,5.00624 -5.50486,9.77555 -7.84375,14.4375 -13.45108,3.00749 -27.65911,6.27883 -42.1875,9.71875 0.62872,-2.01694 1.29421,-3.98025 1.96875,-5.84375 0,0 -11.71166,4.99891 -12.21875,5 -0.46075,1.17549 -0.9418,2.37951 -1.40625,3.625 -23.95126,5.7332 -47.89336,11.63875 -69.78125,17.125 0.82605,-2.77344 1.72635,-5.48076 2.71875,-8.03125 0,0 -10.75253,4.29054 -13.75,5.5 -0.62935,1.55089 -1.26917,3.50197 -1.875,5.781251 -25.50336,6.43495 -42.17698,10.72427 -54.4375,13.90625 -3.90211,-2.22944 -8.41639,-3.23563 -13.062496,-2.59375 -11.95669,1.65035 -20.17731,13.55928 -18.375,26.59375 1.80382,13.03427 12.95255,22.24368 24.906246,20.59375 4.02626,-0.55625 7.62233,-2.27969 10.5625,-4.8125 6.93966,0.83481 23.21621,2.70577 43.34375,5 -0.0379,1.53858 -0.0854,3.05189 -0.0937,4.53125 0,0 9.14538,0.27381 12.21875,-0.0312 -0.0266,-0.97033 -0.0543,-2.00463 -0.0625,-3.125 21.72394,2.47059 38.24368,4.3295 60.5,6.84375 -0.0369,1.47342 -0.0542,2.92461 -0.0625,4.40625 0,0 11.62877,1.94595 15.71875,2 -0.14389,-1.07424 -0.19597,-2.72932 -0.21875,-4.65625 20.02989,2.25998 40.03579,4.49976 45.3125,5.09375 1.46787,5.78257 3.03026,10.59905 4.34375,13.75 23.7181,3.38335 66.23949,11.58872 73.28125,10.46875 0.17194,-0.33151 0.31235,-0.61941 0.46875,-0.9375 29.95934,-9.88807 46.65028,-28.87694 58.78125,-56.6875 13.48255,-30.90459 9.01132,-71.835881 -16.84375,-94.968751 -9.00439,-8.06011 -25.32314,-14.73192 -26.21875,-15.09375 0.0137,-0.02223 0.15625,-0.21875 0.15625,-0.21875 z m -18.78125,34.25 c 1.09985,0.45561 2.17496,0.96243 3.21875,1.46875 -1.19439,-0.39905 -2.32714,-0.75544 -3.40625,-1.0625 0.0656,-0.13321 0.12193,-0.27341 0.1875,-0.40625 z"
             style="fill:#666666;fill-opacity:1;fill-rule:evenodd;stroke:none;stroke-width:0.48356113pt;marker:none;visibility:visible;display:inline;overflow:visible;filter:url(#filter4087);enable-background:accumulate"
             inkscape:connector-curvature="0" />
        </g>
        <path
           style="fill:#ffdb00"
           id="path1781"
           d="m 362.92001,46.478832 c -2.21917,19.560347 -1.5995,33.924199 6.55499,47.567855 8.15449,13.643653 18.72548,8.148973 18.72548,8.148973 5.04957,-4.951272 9.28092,-13.3732 9.30527,-25.212486 0.0243,-11.839286 -10.67366,-25.316418 -17.61761,-28.986492 -6.94587,-3.67066 -16.96813,-1.51785 -16.96813,-1.51785 l 0,0 z"
           i:knockout="Off"
           inkscape:connector-curvature="0" />
        <g
           id="g2456">
          <g
             id="g1939"
             transform="matrix(0.6278826,-0.334361,0.334361,0.6278826,194.38555,71.420022)">
            <g
               id="g1933">
              <path
                 i:knockout="Off"
                 d="m 36.937297,104.27203 c -10e-4,-8.667995 6.441,-15.692995 14.392,-15.691995 7.95,0 14.396,7.028 14.397,15.693995 0.002,8.668 -6.441,15.693 -14.392,15.693 -7.949,-10e-4 -14.395,-7.027 -14.397,-15.695 l 0,0 z"
                 id="path1777"
                 inkscape:connector-curvature="0" />
              <path
                 i:knockout="Off"
                 d="m 48.41172,92.77244 c -6.976,9.141 -6.051,20.705 9.58,24.83 15.631,4.123 121.165,30.996 121.165,30.996 l 30.268,-72.042 c -56.989,3.74 -161.013,16.216 -161.013,16.216 l 0,0 z"
                 id="path1779"
                 style="fill:#ff9600"
                 inkscape:connector-curvature="0" />
              <path
                 i:knockout="Off"
                 d="m 246.08172,61.53344 -15.891,20.134 c 16.904,9.341 21.279,27.639 22.025,37.749 1.527,20.701 -18.422,41.984 -29.594,44.055 -1.908,4.162 -2.666,5.756 -2.666,5.756 21.053,-3.57 33.908,-14.555 44.506,-31.895 11.584,-18.951 12.348,-46.062 -2.438,-63.488 -5.293,-6.241 -15.942,-12.311 -15.942,-12.311 l 0,0 z"
                 id="path1783"
                 style="fill:#0c479d"
                 inkscape:connector-curvature="0" />
              <path
                 i:knockout="Off"
                 d="m 194.86372,69.43244 c -12.992,16.714 -19.732,29.588 -22.662,51.242 -1.857,13.725 -0.145,29.176 1.516,35.479 15.172,4.346 42.193,13.535 46.889,13.439 2.91,-4.113 3.391,-6.709 3.391,-6.709 -7.244,-2.32 -10.367,-6.402 -13.328,-13.424 -2.959,-7.02 -1.129,-27.883 8.316,-47.062 9.445,-19.181 27.406,-40.889 27.406,-40.889 l -51.528,7.924 0,0 z"
                 id="path1785"
                 inkscape:connector-curvature="0" />
            </g>
            <path
               id="path1787"
               d="m 161.85572,77.05344 c -10.696,20.317 -19.079,58.125 -19.109,65.383 -2.664,-0.404 -10.09,-2.705 -10.09,-2.705 3.539,-24.6 13.049,-46.74 20.779,-60.532 0.331,0.045 8.42,-2.146 8.42,-2.146 l 0,0 z"
               i:knockout="Off"
               inkscape:connector-curvature="0" />
            <path
               id="path1789"
               d="m 107.60372,81.34344 c -8.201,14.718 -12.501,37.562 -13.613,47.642 -2.033,-0.078 -7.956,-1.092 -7.956,-1.092 2.282,-15.859 8.054,-37.181 12.108,-44.216 2.065,-0.519 9.461,-2.334 9.461,-2.334 l 0,0 z"
               i:knockout="Off"
               inkscape:connector-curvature="0" />
          </g>
        </g>
        <path
           style="fill:#ffffff"
           id="path1791"
           d="m 379.37133,61.614184 c 0,0 5.61126,10.98361 5.61009,13.813067 1.9972,0.345227 4.13047,-0.145226 4.13047,-0.145226 -0.64413,-5.353355 -4.71143,-12.438777 -5.41508,-13.393868 0.21507,-0.101631 -4.32548,-0.273973 -4.32548,-0.273973 l 0,0 z"
           i:knockout="Off"
           inkscape:connector-curvature="0" />
        <path
           style="fill:#ffffff"
           id="path1793"
           d="m 384.99872,80.561529 c -0.33392,3.242798 -0.49056,4.602821 -1.03839,5.117793 1.76026,0.970279 4.51971,0.699238 4.51971,0.699238 l 0.66881,-6.485304 -4.15013,0.668273 0,0 z"
           i:knockout="Off"
           inkscape:connector-curvature="0" />
      </g>
    </g>
  </g>
</svg>
