<?xml version="1.0" encoding="UTF-8" standalone="no"?>
<!-- Created with Inkscape (http://www.inkscape.org/) -->
<svg
   xmlns:svg="http://www.w3.org/2000/svg"
   xmlns="http://www.w3.org/2000/svg"
   xmlns:xlink="http://www.w3.org/1999/xlink"
   version="1.0"
   x="0.0000000"
   y="0.0000000"
   width="358.79529"
   height="256.32501"
   id="svg2123">
  <defs
     id="defs3">
    <defs
       id="defs2773">
      <polygon
         points="0.0000000,0.0000000 343.78100,0.0000000 343.78100,147.45600 0.0000000,147.45600 0.0000000,0.0000000 "
         id="XMLID_33_" />
    </defs>
    <clipPath
       id="XMLID_55_">
      <use
         id="use2777"
         x="0.0000000"
         y="0.0000000"
         width="353.21100"
         height="205.86800"
         xlink:href="#XMLID_33_" />
    </clipPath>
    <defs
       id="defs2745">
      <polygon
         points="0.0000000,0.0000000 343.78100,0.0000000 343.78100,147.45600 0.0000000,147.45600 0.0000000,0.0000000 "
         id="XMLID_27_" />
    </defs>
    <clipPath
       id="XMLID_52_">
      <use
         id="use2749"
         x="0.0000000"
         y="0.0000000"
         width="353.21100"
         height="205.86800"
         xlink:href="#XMLID_27_" />
    </clipPath>
    <defs
       id="defs2653">
      <polygon
         points="0.0000000,0.0000000 343.78100,0.0000000 343.78100,147.45600 0.0000000,147.45600 0.0000000,0.0000000 "
         id="XMLID_9_" />
    </defs>
    <clipPath
       id="XMLID_43_">
      <use
         id="use2657"
         x="0.0000000"
         y="0.0000000"
         width="353.21100"
         height="205.86800"
         xlink:href="#XMLID_9_" />
    </clipPath>
    <defs
       id="defs2785">
      <polygon
         points="13.875000,129.19000 67.556000,106.81900 91.561000,169.23100 37.888000,190.86000 13.875000,129.19000 "
         id="XMLID_35_" />
    </defs>
    <defs
       id="defs2788">
      <polygon
         points="0.0000000,0.0000000 343.78100,0.0000000 343.78100,147.45600 0.0000000,147.45600 0.0000000,0.0000000 "
         id="XMLID_36_" />
    </defs>
    <clipPath
       id="XMLID_56_">
      <use
         id="use2792"
         x="0.0000000"
         y="0.0000000"
         width="353.21100"
         height="205.86800"
         xlink:href="#XMLID_35_" />
    </clipPath>
    <clipPath
       id="XMLID_57_">
      <use
         id="use2795"
         x="0.0000000"
         y="0.0000000"
         width="353.21100"
         height="205.86800"
         xlink:href="#XMLID_36_" />
    </clipPath>
    <defs
       id="defs2757">
      <polygon
         points="66.356000,127.22400 119.16600,106.22000 147.37200,172.83100 90.960000,194.43500 66.356000,127.22400 "
         id="XMLID_29_" />
    </defs>
    <defs
       id="defs2760">
      <polygon
         points="0.0000000,0.0000000 343.78100,0.0000000 343.78100,147.45600 0.0000000,147.45600 0.0000000,0.0000000 "
         id="XMLID_30_" />
    </defs>
    <clipPath
       id="XMLID_53_">
      <use
         id="use2764"
         x="0.0000000"
         y="0.0000000"
         width="353.21100"
         height="205.86800"
         xlink:href="#XMLID_29_" />
    </clipPath>
    <clipPath
       id="XMLID_54_">
      <use
         id="use2767"
         x="0.0000000"
         y="0.0000000"
         width="353.21100"
         height="205.86800"
         xlink:href="#XMLID_30_" />
    </clipPath>
    <defs
       id="defs2729">
      <polygon
         points="122.16700,127.82300 174.97700,107.41900 206.78300,165.63000 153.37300,194.43500 122.16700,127.82300 "
         id="XMLID_23_" />
    </defs>
    <defs
       id="defs2732">
      <polygon
         points="0.0000000,0.0000000 343.78100,0.0000000 343.78100,147.45600 0.0000000,147.45600 0.0000000,0.0000000 "
         id="XMLID_24_" />
    </defs>
    <clipPath
       id="XMLID_50_">
      <use
         id="use2736"
         x="0.0000000"
         y="0.0000000"
         width="353.21100"
         height="205.86800"
         xlink:href="#XMLID_23_" />
    </clipPath>
    <clipPath
       id="XMLID_51_">
      <use
         id="use2739"
         x="0.0000000"
         y="0.0000000"
         width="353.21100"
         height="205.86800"
         xlink:href="#XMLID_24_" />
    </clipPath>
    <defs
       id="defs2717">
      <polygon
         points="0.0000000,0.0000000 343.78100,0.0000000 343.78100,147.45600 0.0000000,147.45600 0.0000000,0.0000000 "
         id="XMLID_21_" />
    </defs>
    <clipPath
       id="XMLID_49_">
      <use
         id="use2721"
         x="0.0000000"
         y="0.0000000"
         width="353.21100"
         height="205.86800"
         xlink:href="#XMLID_21_" />
    </clipPath>
    <defs
       id="defs2701">
      <polygon
         points="182.17800,122.42300 223.58600,103.81900 263.79300,169.83100 204.38100,190.83500 182.17800,122.42300 "
         id="XMLID_17_" />
    </defs>
    <defs
       id="defs2704">
      <polygon
         points="0.0000000,0.0000000 343.78100,0.0000000 343.78100,147.45600 0.0000000,147.45600 0.0000000,0.0000000 "
         id="XMLID_18_" />
    </defs>
    <clipPath
       id="XMLID_47_">
      <use
         id="use2708"
         x="0.0000000"
         y="0.0000000"
         width="353.21100"
         height="205.86800"
         xlink:href="#XMLID_17_" />
    </clipPath>
    <clipPath
       id="XMLID_48_">
      <use
         id="use2711"
         x="0.0000000"
         y="0.0000000"
         width="353.21100"
         height="205.86800"
         xlink:href="#XMLID_18_" />
    </clipPath>
    <defs
       id="defs2689">
      <polygon
         points="0.0000000,0.0000000 343.78100,0.0000000 343.78100,147.45600 0.0000000,147.45600 0.0000000,0.0000000 "
         id="XMLID_15_" />
    </defs>
    <clipPath
       id="XMLID_46_">
      <use
         id="use2693"
         x="0.0000000"
         y="0.0000000"
         width="353.21100"
         height="205.86800"
         xlink:href="#XMLID_15_" />
    </clipPath>
    <defs
       id="defs2673">
      <polygon
         points="225.98600,124.22200 275.19500,106.81900 302.20100,165.63000 251.19100,192.63600 225.98600,124.22200 "
         id="XMLID_11_" />
    </defs>
    <defs
       id="defs2676">
      <polygon
         points="0.0000000,0.0000000 343.78100,0.0000000 343.78100,147.45600 0.0000000,147.45600 0.0000000,0.0000000 "
         id="XMLID_12_" />
    </defs>
    <clipPath
       id="XMLID_44_">
      <use
         id="use2680"
         x="0.0000000"
         y="0.0000000"
         width="353.21100"
         height="205.86800"
         xlink:href="#XMLID_11_" />
    </clipPath>
    <clipPath
       id="XMLID_45_">
      <use
         id="use2683"
         x="0.0000000"
         y="0.0000000"
         width="353.21100"
         height="205.86800"
         xlink:href="#XMLID_12_" />
    </clipPath>
    <defs
       id="defs2637">
      <polygon
         points="349.09000,175.56900 296.27900,196.57300 270.05300,134.59700 324.48600,108.35600 349.09000,175.56900 "
         id="XMLID_5_" />
    </defs>
    <defs
       id="defs2640">
      <polygon
         points="0.0000000,0.0000000 343.78100,0.0000000 343.78100,147.45600 0.0000000,147.45600 0.0000000,0.0000000 "
         id="XMLID_6_" />
    </defs>
    <clipPath
       id="XMLID_41_">
      <use
         id="use2644"
         x="0.0000000"
         y="0.0000000"
         width="353.21100"
         height="205.86800"
         xlink:href="#XMLID_5_" />
    </clipPath>
    <clipPath
       id="XMLID_42_">
      <use
         id="use2647"
         x="0.0000000"
         y="0.0000000"
         width="353.21100"
         height="205.86800"
         xlink:href="#XMLID_6_" />
    </clipPath>
    <defs
       id="defs2619">
      <polygon
         points="0.0000000,0.0000000 343.78100,0.0000000 343.78100,147.45600 0.0000000,147.45600 0.0000000,0.0000000 "
         id="XMLID_3_" />
    </defs>
    <clipPath
       id="XMLID_40_">
      <use
         id="use2623"
         x="0.0000000"
         y="0.0000000"
         width="353.21100"
         height="205.86800"
         xlink:href="#XMLID_3_" />
    </clipPath>
    <defs
       id="defs2583">
      <path
         d="M 198.27900,24.740000 C 198.27900,18.188000 203.59000,12.876000 210.14200,12.876000 C 216.69400,12.876000 222.00500,18.188000 222.00500,24.740000 C 222.00500,31.292000 216.69400,36.604000 210.14200,36.604000 C 203.59000,36.604000 198.27900,31.292000 198.27900,24.740000 L 198.27900,24.740000 z "
         id="XMLID_1_" />
    </defs>
    <clipPath
       id="XMLID_39_">
      <use
         id="use2587"
         x="0.0000000"
         y="0.0000000"
         width="353.21100"
         height="205.86800"
         xlink:href="#XMLID_1_" />
    </clipPath>
  </defs>
  <g
     id="g1718">
    <polygon
       points="235.02900,98.560000 102.87300,98.560000 168.95200,24.686000 235.02900,98.560000 "
       transform="matrix(1.028316,0.000000,0.000000,1.028316,-4.465200,-5.392900)"
       id="polygon2551" />
    <polygon
       points="168.21200,30.193000 113.24000,94.839000 161.80100,94.984000 168.21200,30.193000 "
       transform="matrix(1.028316,0.000000,0.000000,1.028316,-4.465200,-5.392900)"
       style="fill:#ffffff"
       id="polygon2553" />
    <polygon
       points="171.16800,36.307000 174.12500,94.839000 225.11900,91.853000 171.16800,36.307000 "
       transform="matrix(1.028316,0.000000,0.000000,1.028316,-4.465200,-5.392900)"
       style="fill:#ffdb00"
       id="polygon2555" />
    <polygon
       points="74.330000,73.670000 108.25400,119.91300 226.65800,119.91300 265.16800,74.147000 208.78700,68.835000 215.32400,77.824000 172.83800,80.284000 122.15500,77.221000 130.75000,67.610000 74.330000,73.670000 "
       transform="matrix(1.028316,0.000000,0.000000,1.028316,-4.465200,-5.392900)"
       id="polygon2557" />
    <polygon
       points="83.104000,74.690000 172.01600,85.587000 157.29100,118.12600 108.57100,115.69400 83.104000,74.690000 "
       transform="matrix(1.028316,0.000000,0.000000,1.028316,-4.465200,-5.392900)"
       style="fill:#ffdb00"
       id="polygon2559" />
    <polygon
       points="175.69300,83.953000 164.46600,117.49700 225.12900,116.63800 256.58800,76.190000 175.69300,83.953000 "
       transform="matrix(1.028316,0.000000,0.000000,1.028316,-4.465200,-5.392900)"
       style="fill:#ffffff"
       id="polygon2561" />
    <polygon
       points="103.37600,74.147000 124.21300,70.878000 121.76200,76.598000 103.37600,74.147000 "
       transform="matrix(1.028316,0.000000,0.000000,1.028316,-4.465200,-5.392900)"
       style="fill:#ffdb00"
       id="polygon2563" />
    <polygon
       points="240.65400,74.147000 214.09600,71.695000 217.36300,76.598000 240.65400,74.147000 "
       transform="matrix(1.028316,0.000000,0.000000,1.028316,-4.465200,-5.392900)"
       style="fill:#ffffff"
       id="polygon2565" />
    <path
       d="M 245.60886,72.941200 C 252.36901,63.139300 257.24528,45.909860 258.19545,37.537310 C 259.14767,29.164760 258.67156,19.835880 252.01321,10.267400 C 253.91560,9.7892300 257.24528,6.6796100 258.43402,3.8085500 C 252.48932,2.6126200 237.91603,-0.012670000 224.66206,-0.012670000 C 211.40810,-0.012670000 196.84097,2.6126200 190.89422,3.8085500 C 192.08296,6.6796100 195.41367,9.7882100 197.31503,10.267400 C 190.65668,19.835880 190.18057,29.164760 191.13279,37.537310 C 192.08296,45.909860 197.82713,63.377870 203.71938,72.941200 C 203.48389,72.702640 245.84743,72.702640 245.60886,72.941200 L 245.60886,72.941200 z "
       style="fill:#0c479d"
       id="path2567" />
    <polygon
       points="204.67600,29.891000 240.96500,29.891000 240.96500,76.648000 204.67600,76.648000 204.67600,29.891000 "
       transform="matrix(1.028316,0.000000,0.000000,1.028316,-4.465200,-5.392900)"
       style="fill:#ffffff"
       id="polygon2569" />
    <polygon
       points="222.82000,39.078000 219.68200,33.641000 225.95900,33.641000 222.82000,39.078000 "
       transform="matrix(1.028316,0.000000,0.000000,1.028316,-4.465200,-5.392900)"
       style="fill:#ff9600"
       id="polygon2571" />
    <path
       d="M 215.48948,70.384810 C 215.48948,68.609940 216.92707,67.171320 218.70297,67.171320 L 218.70297,67.171320 C 220.47682,67.171320 221.91646,68.609940 221.91646,70.384810 L 221.91646,76.811790 C 221.91646,78.586660 220.47682,80.025270 218.70297,80.025270 L 218.70297,80.025270 C 216.92707,80.025270 215.48948,78.586660 215.48948,76.811790 L 215.48948,70.384810 L 215.48948,70.384810 z "
       style="fill:#ff9600"
       id="path2573" />
    <path
       d="M 226.82770,70.384810 C 226.82770,68.609940 228.26528,67.171320 230.03913,67.171320 L 230.04118,67.171320 C 231.81503,67.171320 233.25467,68.609940 233.25467,70.384810 L 233.25467,76.811790 C 233.25467,78.586660 231.81503,80.025270 230.04118,80.025270 L 230.03913,80.025270 C 228.26528,80.025270 226.82770,78.586660 226.82770,76.811790 L 226.82770,70.384810 L 226.82770,70.384810 z "
       style="fill:#ff9600"
       id="path2575" />
    <path
       d="M 225.50220,20.047710 C 225.50220,13.310190 230.96358,7.8477700 237.70111,7.8477700 C 244.43864,7.8477700 249.90002,13.310190 249.90002,20.047710 C 249.90002,26.785240 244.43864,32.247660 237.70111,32.247660 C 230.96358,32.247660 225.50220,26.785240 225.50220,20.047710 L 225.50220,20.047710 z "
       style="fill:#ffffff"
       id="path2577" />
    <path
       d="M 199.42822,20.047710 C 199.42822,13.310190 204.88960,7.8477700 211.62713,7.8477700 C 218.36466,7.8477700 223.82604,13.310190 223.82604,20.047710 C 223.82604,26.785240 218.36466,32.247660 211.62713,32.247660 C 204.88960,32.247660 199.42822,26.785240 199.42822,20.047710 L 199.42822,20.047710 z "
       style="fill:#ffffff"
       id="path2579" />
    <polygon
       points="207.24000,23.025000 217.95500,23.025000 217.95500,26.455000 207.24000,26.455000 207.24000,23.025000 "
       transform="matrix(1.028316,0.000000,0.000000,1.028316,-4.465200,-5.392900)"
       id="polygon2589" />
    <path
       d="M 218.95697,52.281310 C 208.77047,52.281310 199.93106,46.508340 195.53707,38.054560 L 237.59108,38.051470 C 233.19606,46.506290 229.14552,52.281310 218.95697,52.281310 L 218.95697,52.281310 z "
       style="fill:#ffffff"
       id="path2591" />
    <path
       d="M 218.11889,49.769130 C 207.93239,49.769130 199.09299,43.996170 194.69899,35.542380 L 241.54187,35.539290 C 237.14685,43.994110 228.30744,49.769130 218.11889,49.769130 L 218.11889,49.769130 z "
       style="fill:#0c479d"
       id="path2593" />
    <path
       d="M 249.86814,51.050410 L 249.86609,25.842280 L 272.56719,29.630590 C 270.13728,40.672650 261.13335,49.248800 249.86814,51.050410 L 249.86814,51.050410 z "
       style="fill:#0c479d"
       id="path2595" />
    <path
       d="M 267.04616,15.254730 C 265.19622,17.105700 262.65011,20.323300 262.65011,20.323300 L 262.64806,1.8249300 C 266.05795,4.5201400 268.82412,7.9979100 270.66789,11.988800 C 270.13317,12.609900 268.39223,13.909700 267.04616,15.254730 L 267.04616,15.254730 z "
       style="fill:#0c479d"
       id="path2597" />
    <path
       d="M 228.08430,19.799890 C 228.08430,15.625960 230.18515,12.241770 232.77445,12.241770 C 235.36580,12.241770 237.46460,15.625960 237.46460,19.799890 C 237.46460,23.974850 235.36580,27.359040 232.77445,27.359040 C 230.18515,27.358010 228.08430,23.973820 228.08430,19.799890 L 228.08430,19.799890 z "
       id="path2599" />
    <path
       d="M 230.81653,15.645490 C 230.64172,20.555700 229.88488,23.957370 236.03421,25.581080 C 242.18354,27.204790 283.39947,36.495630 283.39947,36.495630 L 293.96748,8.3393100 C 271.54916,9.8087700 230.81653,15.645490 230.81653,15.645490 L 230.81653,15.645490 z "
       style="fill:#ff9600"
       id="path2601" />
    <path
       d="M 305.46405,10.697240 C 298.53731,19.095490 294.49192,25.942020 294.15874,34.725900 C 293.82557,43.509770 300.38314,44.150410 300.38314,44.150410 C 304.21773,43.378150 308.71764,40.749770 312.29927,35.267820 C 315.88089,29.785870 314.98420,20.313020 312.87204,16.517510 C 310.75782,12.720960 305.46405,10.697240 305.46405,10.697240 L 305.46405,10.697240 z "
       style="fill:#ffdb00"
       id="path2603" />
    <path
       d="M 311.66788,4.5366000 L 305.09180,11.425280 C 311.39640,15.666060 312.48333,22.986640 312.42883,26.974450 C 312.31675,35.139280 303.76836,42.796120 299.31780,43.223900 C 298.42831,44.790030 298.07663,45.390560 298.07663,45.390560 C 305.93399,45.300070 310.88019,42.343660 316.61819,34.820500 C 322.35414,27.297340 320.41988,13.007860 318.10205,9.7038800 C 315.78731,6.3999000 311.66788,4.5366000 311.66788,4.5366000 L 311.66788,4.5366000 z "
       style="fill:#0c479d"
       id="path2605" />
    <path
       d="M 293.95514,3.7941500 C 288.29117,9.8992600 283.50128,16.382800 281.26983,26.334840 C 279.04044,36.286880 280.55515,38.702390 280.98910,41.227940 C 286.78572,43.452190 296.47451,45.430670 298.31828,45.554060 C 299.59956,44.041410 299.87721,43.040860 299.87721,43.040860 C 297.11926,41.882980 296.03542,40.175970 295.11508,37.323420 C 294.19679,34.470870 295.62923,26.356430 299.98929,19.164390 C 304.34935,11.972350 312.13473,4.0810500 312.13473,4.0810500 L 293.95514,3.7941500 L 293.95514,3.7941500 z "
       id="path2607" />
    <path
       d="M 276.89537,9.1228900 C 272.68750,17.114960 269.38764,31.724240 269.37633,34.579880 C 268.55676,34.726930 265.40806,33.515570 265.40806,33.515570 C 266.80040,23.838090 270.54141,15.392530 273.58420,9.9671300 C 273.71479,9.9846100 276.89537,9.1228900 276.89537,9.1228900 L 276.89537,9.1228900 z "
       id="path2609" />
    <path
       d="M 255.45601,10.994420 C 252.22813,16.783840 250.53758,25.771320 250.09952,29.736510 C 249.41054,29.902070 246.96829,29.307700 246.96829,29.307700 C 247.86601,23.067880 250.13756,14.679900 251.73454,11.912710 C 251.97516,12.075180 255.45601,10.994420 255.45601,10.994420 L 255.45601,10.994420 z "
       id="path2611" />
    <path
       d="M 308.52637,22.673010 C 308.52637,22.673010 307.81581,29.457830 306.96231,30.768940 C 307.78393,31.530920 308.92022,31.946360 308.92022,31.946360 C 310.23544,29.269650 310.48634,24.759460 310.44830,24.105450 C 310.57889,24.122930 308.52637,22.673010 308.52637,22.673010 L 308.52637,22.673010 z "
       style="fill:#ffffff"
       id="path2613" />
    <path
       d="M 305.42189,33.154630 C 304.28868,34.557250 303.80743,35.140310 303.39713,35.213320 C 303.92158,36.194330 305.28307,36.900790 305.28307,36.900790 L 307.54639,34.095540 L 305.42189,33.154630 L 305.42189,33.154630 z "
       style="fill:#ffffff"
       id="path2615" />
    <path
       d="M 266.16700,13.491095 C 264.31501,15.342064 261.76890,18.560693 261.76890,18.560693 L 261.76581,0.062316380 C 265.17571,2.7575326 267.94188,6.2352973 269.78565,10.225163 C 269.25195,10.846266 267.50999,12.147086 266.16700,13.491095 L 266.16700,13.491095 z "
       style="fill:#0c479d"
       id="path2625" />
    <polygon
       points="281.68900,176.39900 254.40000,123.88600 312.59800,89.682000 338.40400,153.62400 281.68900,176.39900 "
       transform="matrix(1.028316,0.000000,0.000000,1.028316,-4.465200,-5.392900)"
       id="polygon2627" />
    <polygon
       points="283.20700,169.49300 266.68600,123.59100 311.39800,96.014000 332.40200,153.02400 283.20700,169.49300 "
       transform="matrix(1.028316,0.000000,0.000000,1.028316,-4.465200,-5.392900)"
       style="fill:#0c479d"
       id="polygon2629" />
    <polygon
       points="257.96900,125.41500 330.06400,103.73300 353.21100,180.03400 290.62700,201.46800 257.96900,125.41500 "
       transform="matrix(1.028316,0.000000,0.000000,1.028316,-4.465200,-5.392900)"
       id="polygon2631" />
    <polygon
       points="349.09000,175.56900 296.27900,196.57300 270.05300,134.59700 324.48600,108.35600 349.09000,175.56900 "
       transform="matrix(1.028316,0.000000,0.000000,1.028316,-4.465200,-5.392900)"
       style="fill:#9693c6"
       id="polygon2633" />
    <path
       d="M 313.45926,146.70223 L 324.33061,140.93852 L 317.99824,124.65411 L 304.68669,129.15505 L 313.45926,146.70223 L 313.45926,146.70223 z M 298.49212,154.64186 L 310.36814,148.34343 L 301.34055,130.28517 L 291.25175,133.69507 L 298.49212,154.64186 L 298.49212,154.64186 z M 334.73409,139.38165 L 328.71844,142.57149 L 338.63038,168.05830 L 335.36856,169.32519 L 325.60573,144.22194 L 315.02538,149.83346 L 322.51872,164.82219 L 319.38956,166.38626 L 311.93221,151.47156 L 299.64897,157.98697 L 304.98491,173.42817 L 325.82681,164.61139 L 327.19036,167.83310 L 306.13148,176.74243 L 308.43079,185.52322 L 304.90367,185.96334 L 302.90154,178.11009 L 295.10073,181.40996 L 293.73719,178.18824 L 301.75497,174.79583 L 296.51878,159.64668 L 294.00455,160.98040 L 292.36541,157.88928 L 295.36192,156.30054 L 287.93440,134.81593 L 281.40253,137.02270 L 280.28167,133.70843 L 286.79091,131.50887 L 285.97546,129.14888 L 289.28355,128.00642 L 290.10723,130.38800 L 299.75798,127.12413 L 298.02629,123.64533 L 301.15546,122.08229 L 303.10412,125.99298 L 316.72725,121.38715 L 313.89526,114.60849 L 317.15503,113.34161 L 320.04562,120.26629 L 330.64653,116.48208 L 331.76534,119.79635 L 321.31559,123.53016 L 327.44127,139.28396 L 333.09495,136.28745 L 334.73409,139.38165 L 334.73409,139.38165 z "
       style="fill:#0c479d"
       id="path2649" />
    <polygon
       points="281.19700,148.82700 229.58600,177.03200 195.38500,118.83500 259.32600,93.030000 281.19700,148.82700 "
       transform="matrix(1.028316,0.000000,0.000000,1.028316,-4.465200,-5.392900)"
       id="polygon2659" />
    <polygon
       points="274.59600,149.42700 231.98600,165.63000 201.11500,121.23500 258.12700,100.23100 274.59600,149.42700 "
       transform="matrix(1.028316,0.000000,0.000000,1.028316,-4.465200,-5.392900)"
       style="fill:#0c479d"
       id="polygon2661" />
    <polygon
       points="87.360000,94.817000 114.64700,147.33100 56.450000,181.53400 30.645000,117.59300 87.360000,94.817000 "
       transform="matrix(1.028316,0.000000,0.000000,1.028316,-4.465200,-5.392900)"
       id="polygon2663" />
    <polygon
       points="85.842000,101.72300 102.36300,147.62600 57.650000,175.20200 36.646000,118.19200 85.842000,101.72300 "
       transform="matrix(1.028316,0.000000,0.000000,1.028316,-4.465200,-5.392900)"
       style="fill:#0c479d"
       id="polygon2665" />
    <polygon
       points="218.78500,122.42300 278.79500,98.417000 309.73200,172.23100 245.78900,198.03600 218.78500,122.42300 "
       transform="matrix(1.028316,0.000000,0.000000,1.028316,-4.465200,-5.392900)"
       id="polygon2667" />
    <polygon
       points="225.98600,124.22200 275.19500,106.81900 302.20100,165.63000 251.19100,192.63600 225.98600,124.22200 "
       transform="matrix(1.028316,0.000000,0.000000,1.028316,-4.465200,-5.392900)"
       style="fill:#9693c6"
       id="polygon2669" />
    <path
       d="M 248.66507,145.12377 L 264.09186,182.15137 L 260.86192,183.49744 L 245.43513,146.46984 L 248.66507,145.12377 L 248.66507,145.12377 z M 261.20230,127.74112 L 267.67143,143.94532 L 279.16800,140.18580 L 270.54146,122.73013 L 261.20230,127.74112 L 261.20230,127.74112 z M 256.08025,114.91082 L 259.89633,124.47107 L 268.98870,119.59274 L 266.46419,114.48304 L 269.59952,112.93234 L 272.07365,117.93715 L 280.50481,113.62337 L 282.15938,116.70626 L 273.62332,121.07454 L 282.52648,139.08653 L 287.85110,137.34764 L 288.94009,140.67116 L 284.09158,142.25580 L 289.13444,152.45669 L 293.15516,150.41034 L 294.74391,153.52717 L 290.68514,155.59408 L 296.13625,166.62072 L 292.99885,168.17142 L 287.56626,157.18077 L 260.80228,170.80596 L 259.21559,167.68914 L 286.01556,154.04338 L 280.73310,143.35404 L 268.97019,147.19994 L 271.84845,154.40432 L 268.59897,155.70206 L 265.63845,148.28893 L 256.84943,151.16307 L 255.76250,147.83750 L 264.33866,145.03328 L 258.10089,129.40596 L 253.43131,131.91094 L 251.77675,128.82805 L 256.79596,126.13694 L 252.83180,116.20752 L 256.08025,114.91082 L 256.08025,114.91082 z "
       style="fill:#ffffff"
       id="path2685" />
    <polygon
       points="175.57600,123.02200 227.18600,94.817000 267.12500,172.23100 203.18200,198.03600 175.57600,123.02200 "
       transform="matrix(1.028316,0.000000,0.000000,1.028316,-4.465200,-5.392900)"
       id="polygon2695" />
    <polygon
       points="182.17800,122.42300 223.58600,103.81900 263.79300,169.83100 204.38100,190.83500 182.17800,122.42300 "
       transform="matrix(1.028316,0.000000,0.000000,1.028316,-4.465200,-5.392900)"
       style="fill:#9693c6"
       id="polygon2697" />
    <path
       d="M 224.11402,139.33949 L 216.08802,122.18307 L 203.58781,127.73803 L 212.11357,146.37420 L 224.11402,139.33949 L 224.11402,139.33949 z M 215.35380,112.35854 L 217.80428,117.59267 L 225.97630,113.96168 L 227.39641,117.15666 L 219.28608,120.76194 L 227.14550,137.56462 L 235.67538,132.56392 L 237.44511,135.58305 L 228.63450,140.74623 L 233.82441,151.84484 L 230.65720,153.32665 L 225.60405,142.52316 L 213.57790,149.57226 L 220.43265,164.55483 L 252.20350,157.05326 L 253.00662,160.45802 L 221.91651,167.79917 L 227.04369,179.00987 L 223.86208,180.46596 L 218.44286,168.61976 L 208.57514,170.94993 L 207.76997,167.54414 L 216.95900,165.37542 L 210.54231,151.35022 L 201.65252,156.56173 L 199.88278,153.54465 L 209.07901,148.15216 L 200.39077,129.15814 L 196.85439,130.70267 L 195.43429,127.50563 L 198.93468,125.97755 L 195.21320,117.69858 L 198.39481,116.24249 L 202.13274,124.55745 L 214.60724,119.01380 L 212.18556,113.84034 L 215.35380,112.35854 L 215.35380,112.35854 z "
       style="fill:#0c479d"
       id="path2713" />
    <polygon
       points="115.56500,122.42300 180.37700,100.81800 214.91400,172.23100 147.97200,199.83700 115.56500,122.42300 "
       transform="matrix(1.028316,0.000000,0.000000,1.028316,-4.465200,-5.392900)"
       id="polygon2723" />
    <polygon
       points="122.16700,127.82300 174.97700,107.41900 206.78300,165.63000 153.37300,194.43500 122.16700,127.82300 "
       transform="matrix(1.028316,0.000000,0.000000,1.028316,-4.465200,-5.392900)"
       style="fill:#9693c6"
       id="polygon2725" />
    <path
       d="M 172.46274,137.61192 L 164.90153,126.64802 L 151.56119,130.78699 L 158.43959,145.04665 L 172.46274,137.61192 L 172.46274,137.61192 z M 159.28898,112.29787 L 166.32061,122.54504 L 180.11547,118.46982 L 181.15406,121.80979 L 168.40295,125.56109 L 175.57545,135.96045 L 182.05281,132.52587 L 183.69195,135.61699 L 177.57655,138.86030 L 186.78101,152.20784 L 183.90070,154.19454 L 174.46178,140.51074 L 159.96047,148.20152 L 168.28160,165.45152 L 193.88564,154.07218 L 195.30781,157.26921 L 169.80248,168.60434 L 172.72187,174.65803 L 169.57111,176.17891 L 166.60339,170.02753 L 150.87530,177.01699 L 149.45417,173.82201 L 165.08251,166.87471 L 156.86730,149.84374 L 142.96138,157.21882 L 141.32224,154.12770 L 155.34539,146.69092 L 148.18214,131.84101 L 139.57411,134.51258 L 138.53756,131.17055 L 146.64481,128.65426 L 144.26837,123.72760 L 147.41913,122.20672 L 150.02283,127.60538 L 162.81919,123.63505 L 156.40764,114.28766 L 159.28898,112.29787 L 159.28898,112.29787 z "
       style="fill:#ffffff"
       id="path2741" />
    <polygon
       points="154.90600,178.23500 90.094000,199.83900 57.354000,128.42300 122.16700,97.817000 154.90600,178.23500 "
       transform="matrix(1.028316,0.000000,0.000000,1.028316,-4.465200,-5.392900)"
       id="polygon2751" />
    <polygon
       points="66.356000,127.22400 119.16600,106.22000 147.37200,172.83100 90.960000,194.43500 66.356000,127.22400 "
       transform="matrix(1.028316,0.000000,0.000000,1.028316,-4.465200,-5.392900)"
       style="fill:#9693c6"
       id="polygon2753" />
    <path
       d="M 109.52157,145.93717 L 120.39190,140.17140 L 114.05953,123.88904 L 100.74695,128.38793 L 109.52157,145.93717 L 109.52157,145.93717 z M 94.553404,153.87474 L 106.42943,147.57630 L 97.400811,129.51805 L 87.312003,132.92794 L 94.553404,153.87474 L 94.553404,153.87474 z M 130.79640,138.61453 L 124.78075,141.80437 L 134.69269,167.29118 L 131.43190,168.55806 L 121.66907,143.45481 L 111.08667,149.06633 L 118.58206,164.05712 L 115.45290,165.62119 L 107.99555,150.70444 L 95.711288,157.21985 L 101.04928,172.66310 L 121.89119,163.84426 L 123.25473,167.06803 L 102.19585,175.97736 L 102.62774,177.22677 L 99.321706,178.36923 L 98.966937,177.34297 L 91.166131,180.64283 L 89.802584,177.42112 L 97.821393,174.02870 L 92.584179,158.87955 L 90.069947,160.21328 L 88.430811,157.12216 L 91.427324,155.53341 L 84.000825,134.04881 L 77.467934,136.25763 L 76.347069,132.94131 L 82.857338,130.74174 L 80.940557,125.07983 L 84.246593,123.93738 L 86.171601,129.62088 L 95.824403,126.35700 L 91.298784,117.14432 L 94.427950,115.58025 L 99.169515,125.22688 L 112.79265,120.62311 L 109.83521,113.01769 L 113.09600,111.75080 L 116.10999,119.50122 L 120.16156,118.13150 L 121.28242,121.44577 L 117.37996,122.76509 L 123.50667,138.52095 L 129.15932,135.52238 L 130.79640,138.61453 L 130.79640,138.61453 z "
       style="fill:#0c479d"
       id="path2769" />
    <polygon
       points="4.2870000,128.59700 67.570000,97.824000 100.31000,169.23900 35.498000,199.84700 4.2870000,128.59700 "
       transform="matrix(1.028316,0.000000,0.000000,1.028316,-4.465200,-5.392900)"
       id="polygon2779" />
    <polygon
       points="13.875000,129.19000 67.556000,106.81900 91.561000,169.23100 37.888000,190.86000 13.875000,129.19000 "
       transform="matrix(1.028316,0.000000,0.000000,1.028316,-4.465200,-5.392900)"
       style="fill:#9693c6"
       id="polygon2781" />
    <path
       d="M 44.498066,130.11241 L 27.825979,135.45657 L 32.017395,147.18143 L 51.411435,142.15194 L 44.498066,130.11241 L 44.498066,130.11241 z M 60.303283,125.04796 L 47.871971,129.03268 L 54.876860,141.25627 L 64.972866,138.63921 L 60.303283,125.04796 L 60.303283,125.04796 z M 14.628571,136.18256 L 23.277737,133.24261 L 20.440614,125.96419 L 23.721970,124.75077 L 26.613594,132.17213 L 42.899035,126.95137 L 38.292179,118.02764 L 41.414147,116.44918 L 46.273968,125.87061 L 59.120720,121.75323 L 56.852255,115.44040 L 60.144923,114.25784 L 62.454520,120.68481 L 67.710243,118.90582 L 68.778664,122.23757 L 63.638112,123.97851 L 68.375564,137.75589 L 73.824610,136.34195 L 74.702792,139.72820 L 69.563269,141.06192 L 71.590080,146.69915 L 68.297412,147.88377 L 66.162628,141.94319 L 56.495429,144.45022 L 64.716816,160.69659 L 61.594848,162.27505 L 53.028976,145.34794 L 33.236978,150.47924 L 40.729288,170.75249 L 37.447932,171.96590 L 29.833252,151.36153 L 24.717380,152.68909 L 23.839198,149.30079 L 28.614697,148.06372 L 24.492179,136.52499 L 15.696992,139.51122 L 14.628571,136.18256 L 14.628571,136.18256 z "
       style="fill:#ffffff"
       id="path2797" />
  </g>
  <g
     transform="translate(0.000000,-14.00000)"
     id="g1774">
    <path
       d="M 47.465730,262.00617 C 45.929430,264.95641 43.075850,266.30453 39.317360,266.30453 C 37.447880,266.30453 35.806690,266.02894 34.517180,265.41710 C 33.171110,264.71167 32.110920,263.53322 31.319120,262.00720 L 6.3053300,216.16076 L 18.251280,216.16076 L 39.319410,255.22443 L 60.459530,216.16076 L 72.401370,216.16076 L 47.465730,262.00617 L 47.465730,262.00617 z "
       style="fill:#ff9600"
       id="path2535" />
    <polygon
       points="79.731000,205.42700 79.731000,168.22600 90.122000,168.22600 90.122000,205.42700 79.731000,205.42700 "
       transform="matrix(1.028316,0.000000,0.000000,1.028316,-4.465200,54.60710)"
       style="fill:#ff9600"
       id="polygon2537" />
    <polygon
       points="126.45700,164.40100 126.45700,205.64700 115.55200,205.64700 115.55200,164.40300 94.020000,164.40100 94.020000,157.10400 148.06300,157.10400 148.06300,164.40100 126.45700,164.40100 "
       transform="matrix(1.028316,0.000000,0.000000,1.028316,-4.465200,54.60710)"
       style="fill:#ff9600"
       id="polygon2539" />
    <path
       d="M 181.89646,260.89970 C 178.89994,264.22733 174.89157,265.85002 169.99061,265.85002 L 151.58581,265.85002 C 149.01400,265.85002 146.36505,265.24537 143.66058,264.08029 C 139.37662,262.17996 136.92717,259.23795 136.92717,255.20695 L 136.69991,250.84689 C 136.69991,246.95882 138.00279,243.81938 140.74839,241.71647 C 143.46212,239.62385 147.09619,238.65517 151.50972,238.65517 L 173.50951,238.65517 L 173.50951,236.95228 C 173.50951,236.69315 173.41285,236.39185 173.04163,236.02063 C 172.38351,235.50236 171.63283,235.25145 170.74540,235.25145 L 136.69888,235.17329 L 136.69888,227.59563 L 170.06465,227.59563 C 173.78099,227.59563 176.78675,228.07380 179.00380,229.15456 C 181.37407,230.22092 182.99059,232.11508 183.89653,234.72392 L 184.19371,236.63762 L 184.19371,255.66146 C 184.19474,257.57207 183.36489,259.31918 181.89646,260.89970 L 181.89646,260.89970 z M 173.50951,255.21414 L 173.50951,249.45043 C 172.87298,247.87403 172.29096,247.24470 171.65649,246.91152 C 170.99117,246.52590 169.72839,246.23489 167.71804,246.23489 L 166.80798,246.23489 L 154.00853,246.23489 L 153.02340,246.23489 C 151.02024,246.23489 149.72662,246.51562 148.99651,246.91769 C 148.40729,247.22927 147.86023,247.81541 147.43964,248.83344 L 147.38309,249.45043 L 147.38309,255.29744 L 147.43347,255.79514 C 147.89210,256.80495 148.47002,257.40137 149.11477,257.72324 C 149.94051,258.05230 151.55908,258.27338 154.15969,258.27338 L 166.65579,258.27338 C 169.34895,258.27338 170.91301,258.06464 171.60918,257.77157 C 172.23954,257.48672 172.82260,256.88619 173.29665,255.72110 L 173.50951,255.21414 L 173.50951,255.21414 z "
       style="fill:#ff9600;fill-rule:evenodd"
       id="path2541" />
    <path
       d="M 227.00868,264.96464 C 225.04048,265.54666 223.11856,265.85002 221.26656,265.85002 L 203.16409,265.85002 C 199.35829,265.85002 195.94223,264.70756 192.94366,262.41750 C 191.49784,261.34702 190.38932,260.20251 189.71372,258.97881 C 189.05251,257.71501 188.73373,256.28976 188.73373,254.75346 L 188.65352,215.32782 L 199.49300,215.32782 L 199.49300,227.59563 L 220.05315,227.59563 C 224.47388,227.59563 228.00203,228.17766 230.53478,229.47128 C 233.14361,230.74639 234.82285,232.86987 235.51594,235.70391 L 235.84706,237.44073 L 235.84706,255.50824 C 235.84706,260.14492 232.54513,263.22370 227.00868,264.96464 L 227.00868,264.96464 z M 225.16285,238.54411 C 225.16285,237.22067 224.73302,236.50394 224.11397,236.08952 C 223.37667,235.56303 221.99153,235.17535 219.74980,235.17535 L 204.60270,235.17535 L 203.66693,235.24939 C 201.71725,235.24939 200.64986,235.61136 200.20048,236.00417 C 199.84057,236.31575 199.49300,236.98827 199.49300,238.39192 L 199.49300,254.60024 C 199.49300,255.86404 200.00921,256.75353 201.29050,257.41371 C 202.58617,258.01425 203.69264,258.27133 204.67880,258.27133 L 220.72258,258.27133 L 221.68714,258.13251 C 223.49081,257.85178 224.54895,256.93349 225.06311,255.23060 L 225.16285,238.54411 L 225.16285,238.54411 z "
       style="fill:#ff9600;fill-rule:evenodd"
       id="path2543" />
    <polygon
       points="238.18400,205.42700 238.18400,156.29600 248.57400,156.29600 248.57400,205.42700 238.18400,205.42700 "
       transform="matrix(1.028316,0.000000,0.000000,1.028316,-4.465200,54.60710)"
       style="fill:#ff9600"
       id="polygon2545" />
    <path
       d="M 271.40417,265.85105 C 266.18032,265.85105 261.98891,264.65820 259.00165,262.06890 C 256.88126,260.28991 255.76040,258.06567 255.76040,255.43523 L 255.76040,238.92356 C 255.76040,231.03021 262.41668,227.59563 273.44846,227.59563 L 287.15591,227.59563 C 291.67639,227.59563 295.36187,228.39052 298.11365,230.13043 C 300.99807,231.86212 302.49633,234.42057 302.49633,237.71015 L 302.49633,242.64915 L 266.44460,253.78170 L 266.44460,254.45011 C 266.82610,256.39671 267.35466,257.24404 267.84619,257.61938 C 268.45290,257.98134 269.74652,258.27236 272.00779,258.27236 L 303.10406,258.27236 L 303.10406,265.85002 L 271.40417,265.85002 L 271.40417,265.85105 z M 291.81213,237.63611 C 291.81213,236.63967 291.47278,236.15945 291.02855,235.88900 C 290.45166,235.50338 289.17244,235.17638 286.93174,235.17638 L 271.85868,235.17638 C 269.62929,235.17638 268.27603,235.57434 267.54284,236.13271 C 266.89809,236.62528 266.44666,237.49626 266.44666,239.07473 L 266.44666,245.48011 L 291.81213,237.63611 L 291.81213,237.63611 z "
       style="fill:#ff9600;fill-rule:evenodd"
       id="path2547" />
    <path
       d="M 322.75621,235.17638 L 321.08931,235.17638 C 320.75408,235.17638 320.02500,235.32137 318.81776,235.72447 C 318.29332,235.88283 317.94781,236.19647 317.94781,237.18057 L 317.94781,239.83157 C 317.94781,240.10304 318.07634,240.46398 318.54834,240.89793 C 319.24554,241.59513 320.38183,242.06301 322.14745,242.06301 L 335.87547,242.06507 L 338.47813,242.14116 C 341.77594,242.68309 344.44134,243.70009 346.47123,245.28267 C 348.52787,246.87964 349.68267,248.88589 349.68267,251.26952 L 349.68267,257.02604 C 349.68267,258.70733 348.87544,260.30431 347.54788,261.79640 C 346.83731,262.67561 345.73599,263.45713 344.42694,264.13787 C 341.89009,265.24845 339.45812,265.85105 337.22050,265.85105 L 307.03532,265.85105 L 307.03532,258.27338 L 333.73554,258.27338 L 336.00709,258.27338 C 336.51714,258.27338 337.14235,258.08417 337.85292,257.62452 C 338.29921,257.36333 338.57788,257.04043 338.69819,256.80289 C 338.83702,256.56947 338.99743,256.07793 338.99743,255.28201 L 338.99743,252.47985 C 338.99743,251.41760 338.64369,250.86951 338.17170,250.55587 C 337.59481,250.13838 336.39991,249.79492 334.34122,249.79492 L 321.84512,249.79492 C 318.69950,249.79492 316.07936,249.48745 314.03609,248.82316 C 311.96918,248.15476 310.27245,247.07194 308.94490,245.51507 C 307.82815,244.33662 307.26155,242.94428 307.26155,241.34730 L 307.26155,236.65201 C 307.26155,233.75422 308.50889,231.44462 310.93058,229.84970 C 313.28234,228.29900 316.43412,227.59666 320.25329,227.59666 L 349.83177,227.59666 L 349.83177,235.17638 L 322.75621,235.17638 L 322.75621,235.17638 z "
       style="fill:#ff9600"
       id="path2549" />
    <path
       d="M 83.017700,225.25416 C 81.218150,225.25416 79.607810,224.85826 78.255570,223.99858 C 76.863230,223.11115 76.009730,221.83912 76.009730,220.21438 C 76.009730,218.70379 76.876600,217.52739 78.155820,216.67389 C 78.790300,216.18338 79.515260,215.83478 80.324540,215.60136 C 81.154390,215.36484 82.029490,215.25173 82.940580,215.25173 C 84.716480,215.25173 86.299060,215.67745 87.650270,216.59779 C 89.021010,217.49140 89.949580,218.70893 89.949580,220.29151 C 89.949580,221.82987 89.100190,223.04122 87.796290,223.91221 C 86.407030,224.81815 84.793600,225.25416 83.017700,225.25416 L 83.017700,225.25416 z "
       style="fill:#0c479d"
       id="path2799" />
  </g>
</svg>
