<?xml version="1.0" encoding="UTF-8" standalone="no"?>
<!-- Created with Inkscape (http://www.inkscape.org/) -->

<svg
   xmlns:i="http://ns.adobe.com/AdobeIllustrator/10.0/"
   xmlns:dc="http://purl.org/dc/elements/1.1/"
   xmlns:cc="http://creativecommons.org/ns#"
   xmlns:rdf="http://www.w3.org/1999/02/22-rdf-syntax-ns#"
   xmlns:svg="http://www.w3.org/2000/svg"
   xmlns="http://www.w3.org/2000/svg"
   xmlns:sodipodi="http://sodipodi.sourceforge.net/DTD/sodipodi-0.dtd"
   xmlns:inkscape="http://www.inkscape.org/namespaces/inkscape"
   width="105.17283"
   height="82.087395"
   id="svg2516"
   sodipodi:version="0.32"
   inkscape:version="0.48.5 r10040"
   version="1.0"
   sodipodi:docname="vitables_logo_2.svg"
   inkscape:output_extension="org.inkscape.output.svg.inkscape"
   inkscape:export-filename="/home/ivan/svn/carabos/dissenys/vitables/logo.png"
   inkscape:export-xdpi="90"
   inkscape:export-ydpi="90">
  <defs
     id="defs2518">
    <filter
       inkscape:collect="always"
       x="-0.081248641"
       width="1.1624973"
       y="-0.12926643"
       height="1.2585328"
       id="filter4087"
       color-interpolation-filters="sRGB">
      <feGaussianBlur
         inkscape:collect="always"
         stdDeviation="11.364433"
         id="feGaussianBlur4089" />
    </filter>
    <inkscape:perspective
       sodipodi:type="inkscape:persp3d"
       inkscape:vp_x="0 : 110 : 1"
       inkscape:vp_y="0 : 1000 : 0"
       inkscape:vp_z="500 : 110 : 1"
       inkscape:persp3d-origin="250 : 73.333333 : 1"
       id="perspective39" />
    <filter
       id="filter12589"
       color-interpolation-filters="sRGB">
      <feGaussianBlur
         id="feGaussianBlur12591"
         stdDeviation="4.2009766"
         inkscape:collect="always" />
    </filter>
    <clipPath
       id="XMLID_39_">
      <path
         id="use2587"
         d="m 198.279,24.74 c 0,-6.552 5.311,-11.864 11.863,-11.864 6.552,0 11.863,5.312 11.863,11.864 0,6.552 -5.311,11.864 -11.863,11.864 -6.552,0 -11.863,-5.312 -11.863,-11.864 l 0,0 z"
         inkscape:connector-curvature="0" />
    </clipPath>
  </defs>
  <sodipodi:namedview
     inkscape:document-units="mm"
     pagecolor="#ffffff"
     bordercolor="#666666"
     borderopacity="1.0"
     inkscape:pageopacity="0.0"
     inkscape:pageshadow="2"
     inkscape:zoom="1.86"
     inkscape:cx="-60.201806"
     inkscape:cy="117.2963"
     inkscape:current-layer="layer1"
     id="namedview2520"
     height="220px"
     width="500px"
     inkscape:window-width="1272"
     inkscape:window-height="768"
     inkscape:window-x="0"
     inkscape:window-y="0"
     showgrid="false"
     units="mm"
     fit-margin-top="0"
     fit-margin-left="0"
     fit-margin-right="0"
     fit-margin-bottom="0"
     inkscape:window-maximized="1" />
  <metadata
     id="metadata2522">
    <rdf:RDF>
      <cc:Work
         rdf:about="">
        <dc:format>image/svg+xml</dc:format>
        <dc:type
           rdf:resource="http://purl.org/dc/dcmitype/StillImage" />
        <dc:title></dc:title>
      </cc:Work>
    </rdf:RDF>
  </metadata>
  <g
     inkscape:label="Layer 1"
     inkscape:groupmode="layer"
     id="layer1"
     transform="translate(-364.55527,-44.994763)">
    <g
       id="g2481"
       transform="matrix(0.57388688,0,0,0.66129189,225.50841,29.798038)">
      <g
         id="g2478">
        <path
           inkscape:connector-curvature="0"
           style="fill:#666666;fill-opacity:1;fill-rule:evenodd;stroke:none;stroke-width:0.48356113pt;marker:none;visibility:visible;display:inline;overflow:visible;filter:url(#filter4087);enable-background:accumulate"
           d="m 386.97046,30.131149 -0.40625,0.125 c -10e-4,-4.4e-4 -0.0625,-0.03125 -0.0625,-0.03125 l -0.0312,0.0625 -75.34375,22.46875 c -2.88947,5.00624 -5.50486,9.77555 -7.84375,14.4375 -13.45108,3.00749 -27.65911,6.27883 -42.1875,9.71875 0.62872,-2.01694 1.29421,-3.98025 1.96875,-5.84375 0,0 -11.71166,4.99891 -12.21875,5 -0.46075,1.17549 -0.9418,2.37951 -1.40625,3.625 -23.95126,5.7332 -47.89336,11.63875 -69.78125,17.125 0.82605,-2.77344 1.72635,-5.48076 2.71875,-8.03125 0,0 -10.75253,4.29054 -13.75,5.5 -0.62935,1.55089 -1.26917,3.50197 -1.875,5.781251 -25.50336,6.43495 -42.17698,10.72427 -54.4375,13.90625 -3.90211,-2.22944 -8.41639,-3.23563 -13.062496,-2.59375 -11.95669,1.65035 -20.17731,13.55928 -18.375,26.59375 1.80382,13.03427 12.95255,22.24368 24.906246,20.59375 4.02626,-0.55625 7.62233,-2.27969 10.5625,-4.8125 6.93966,0.83481 23.21621,2.70577 43.34375,5 -0.0379,1.53858 -0.0854,3.05189 -0.0937,4.53125 0,0 9.14538,0.27381 12.21875,-0.0312 -0.0266,-0.97033 -0.0543,-2.00463 -0.0625,-3.125 21.72394,2.47059 38.24368,4.3295 60.5,6.84375 -0.0369,1.47342 -0.0542,2.92461 -0.0625,4.40625 0,0 11.62877,1.94595 15.71875,2 -0.14389,-1.07424 -0.19597,-2.72932 -0.21875,-4.65625 20.02989,2.25998 40.03579,4.49976 45.3125,5.09375 1.46787,5.78257 3.03026,10.59905 4.34375,13.75 23.7181,3.38335 66.23949,11.58872 73.28125,10.46875 0.17194,-0.33151 0.31235,-0.61941 0.46875,-0.9375 29.95934,-9.88807 46.65028,-28.87694 58.78125,-56.6875 13.48255,-30.90459 9.01132,-71.835881 -16.84375,-94.968751 -9.00439,-8.06011 -25.32314,-14.73192 -26.21875,-15.09375 0.0137,-0.02223 0.15625,-0.21875 0.15625,-0.21875 z m -18.78125,34.25 c 1.09985,0.45561 2.17496,0.96243 3.21875,1.46875 -1.19439,-0.39905 -2.32714,-0.75544 -3.40625,-1.0625 0.0656,-0.13321 0.12193,-0.27341 0.1875,-0.40625 z"
           id="path2958"
           transform="matrix(0.4457136,-0.1446565,0.1446565,0.4457136,200.47195,78.157952)" />
      </g>
      <path
         inkscape:connector-curvature="0"
         i:knockout="Off"
         d="m 362.92001,46.478832 c -2.21917,19.560347 -1.5995,33.924199 6.55499,47.567855 8.15449,13.643653 18.72548,8.148973 18.72548,8.148973 5.04957,-4.951272 9.28092,-13.3732 9.30527,-25.212486 0.0243,-11.839286 -10.67366,-25.316418 -17.61761,-28.986492 -6.94587,-3.67066 -16.96813,-1.51785 -16.96813,-1.51785 l 0,0 z"
         id="path1781"
         style="fill:#ffdb00" />
      <g
         id="g2456">
        <g
           transform="matrix(0.6278826,-0.334361,0.334361,0.6278826,194.38555,71.420022)"
           id="g1939">
          <g
             id="g1933">
            <path
               inkscape:connector-curvature="0"
               id="path1777"
               d="m 36.937297,104.27203 c -10e-4,-8.667995 6.441,-15.692995 14.392,-15.691995 7.95,0 14.396,7.028 14.397,15.693995 0.002,8.668 -6.441,15.693 -14.392,15.693 -7.949,-10e-4 -14.395,-7.027 -14.397,-15.695 l 0,0 z"
               i:knockout="Off" />
            <path
               inkscape:connector-curvature="0"
               style="fill:#ff9600"
               id="path1779"
               d="m 48.41172,92.77244 c -6.976,9.141 -6.051,20.705 9.58,24.83 15.631,4.123 121.165,30.996 121.165,30.996 l 30.268,-72.042 c -56.989,3.74 -161.013,16.216 -161.013,16.216 l 0,0 z"
               i:knockout="Off" />
            <path
               inkscape:connector-curvature="0"
               style="fill:#0c479d"
               id="path1783"
               d="m 246.08172,61.53344 -15.891,20.134 c 16.904,9.341 21.279,27.639 22.025,37.749 1.527,20.701 -18.422,41.984 -29.594,44.055 -1.908,4.162 -2.666,5.756 -2.666,5.756 21.053,-3.57 33.908,-14.555 44.506,-31.895 11.584,-18.951 12.348,-46.062 -2.438,-63.488 -5.293,-6.241 -15.942,-12.311 -15.942,-12.311 l 0,0 z"
               i:knockout="Off" />
            <path
               inkscape:connector-curvature="0"
               id="path1785"
               d="m 194.86372,69.43244 c -12.992,16.714 -19.732,29.588 -22.662,51.242 -1.857,13.725 -0.145,29.176 1.516,35.479 15.172,4.346 42.193,13.535 46.889,13.439 2.91,-4.113 3.391,-6.709 3.391,-6.709 -7.244,-2.32 -10.367,-6.402 -13.328,-13.424 -2.959,-7.02 -1.129,-27.883 8.316,-47.062 9.445,-19.181 27.406,-40.889 27.406,-40.889 l -51.528,7.924 0,0 z"
               i:knockout="Off" />
          </g>
          <path
             inkscape:connector-curvature="0"
             i:knockout="Off"
             d="m 161.85572,77.05344 c -10.696,20.317 -19.079,58.125 -19.109,65.383 -2.664,-0.404 -10.09,-2.705 -10.09,-2.705 3.539,-24.6 13.049,-46.74 20.779,-60.532 0.331,0.045 8.42,-2.146 8.42,-2.146 l 0,0 z"
             id="path1787" />
          <path
             inkscape:connector-curvature="0"
             i:knockout="Off"
             d="m 107.60372,81.34344 c -8.201,14.718 -12.501,37.562 -13.613,47.642 -2.033,-0.078 -7.956,-1.092 -7.956,-1.092 2.282,-15.859 8.054,-37.181 12.108,-44.216 2.065,-0.519 9.461,-2.334 9.461,-2.334 l 0,0 z"
             id="path1789" />
        </g>
      </g>
      <path
         inkscape:connector-curvature="0"
         i:knockout="Off"
         d="m 379.37133,61.614184 c 0,0 5.61126,10.98361 5.61009,13.813067 1.9972,0.345227 4.13047,-0.145226 4.13047,-0.145226 -0.64413,-5.353355 -4.71143,-12.438777 -5.41508,-13.393868 0.21507,-0.101631 -4.32548,-0.273973 -4.32548,-0.273973 l 0,0 z"
         id="path1791"
         style="fill:#ffffff" />
      <path
         inkscape:connector-curvature="0"
         i:knockout="Off"
         d="m 384.99872,80.561529 c -0.33392,3.242798 -0.49056,4.602821 -1.03839,5.117793 1.76026,0.970279 4.51971,0.699238 4.51971,0.699238 l 0.66881,-6.485304 -4.15013,0.668273 0,0 z"
         id="path1793"
         style="fill:#ffffff" />
    </g>
  </g>
</svg>
