<?xml version="1.0" encoding="UTF-8" standalone="no"?>
<!-- Created with Inkscape (http://www.inkscape.org/) -->
<svg
   xmlns:i="http://ns.adobe.com/AdobeIllustrator/10.0/"
   xmlns:dc="http://purl.org/dc/elements/1.1/"
   xmlns:cc="http://creativecommons.org/ns#"
   xmlns:rdf="http://www.w3.org/1999/02/22-rdf-syntax-ns#"
   xmlns:svg="http://www.w3.org/2000/svg"
   xmlns="http://www.w3.org/2000/svg"
   xmlns:sodipodi="http://sodipodi.sourceforge.net/DTD/sodipodi-0.dtd"
   xmlns:inkscape="http://www.inkscape.org/namespaces/inkscape"
   width="420"
   height="80"
   id="svg2516"
   sodipodi:version="0.32"
   inkscape:version="0.46"
   version="1.0"
   sodipodi:docbase="/home/ivan/svn/carabos/dissenys/vitables"
   sodipodi:docname="vitables_logo_2.svg"
   inkscape:output_extension="org.inkscape.output.svg.inkscape"
   inkscape:export-filename="/home/ivan/svn/carabos/dissenys/vitables/logo.png"
   inkscape:export-xdpi="90"
   inkscape:export-ydpi="90">
  <defs
     id="defs2518">
    <filter
       inkscape:collect="always"
       x="-0.081248641"
       width="1.1624973"
       y="-0.12926643"
       height="1.2585328"
       id="filter4087">
      <feGaussianBlur
         inkscape:collect="always"
         stdDeviation="11.364433"
         id="feGaussianBlur4089" />
    </filter>
    <inkscape:perspective
       sodipodi:type="inkscape:persp3d"
       inkscape:vp_x="0 : 110 : 1"
       inkscape:vp_y="0 : 1000 : 0"
       inkscape:vp_z="500 : 110 : 1"
       inkscape:persp3d-origin="250 : 73.333333 : 1"
       id="perspective39" />
    <filter
       id="filter12589">
      <feGaussianBlur
         id="feGaussianBlur12591"
         stdDeviation="4.2009766"
         inkscape:collect="always" />
    </filter>
    <clipPath
       id="XMLID_39_">
      <path
         id="use2587"
         d="M 198.279,24.74 C 198.279,18.188 203.59,12.876 210.142,12.876 C 216.694,12.876 222.005,18.188 222.005,24.74 C 222.005,31.292 216.694,36.604 210.142,36.604 C 203.59,36.604 198.279,31.292 198.279,24.74 L 198.279,24.74 z" />
    </clipPath>
  </defs>
  <sodipodi:namedview
     inkscape:document-units="mm"
     pagecolor="#ffffff"
     bordercolor="#666666"
     borderopacity="1.0"
     inkscape:pageopacity="0.0"
     inkscape:pageshadow="2"
     inkscape:zoom="1.86"
     inkscape:cx="250"
     inkscape:cy="114.30108"
     inkscape:current-layer="layer1"
     id="namedview2520"
     height="220px"
     width="500px"
     inkscape:window-width="1272"
     inkscape:window-height="946"
     inkscape:window-x="0"
     inkscape:window-y="0"
     showgrid="false" />
  <metadata
     id="metadata2522">
    <rdf:RDF>
      <cc:Work
         rdf:about="">
        <dc:format>image/svg+xml</dc:format>
        <dc:type
           rdf:resource="http://purl.org/dc/dcmitype/StillImage" />
      </cc:Work>
    </rdf:RDF>
  </metadata>
  <g
     inkscape:label="Layer 1"
     inkscape:groupmode="layer"
     id="layer1"
     transform="translate(-54.353461,-44.086937)">
    <g
       id="g2411"
       transform="matrix(1.1588765,0,0,1.3353775,-4.6354841,-10.785765)">
      <g
         transform="matrix(0.5952381,0,0,0.5952381,46.321782,-19.689943)"
         id="g2497">
        <path
           style="fill:#666666;fill-opacity:1;fill-rule:evenodd;stroke:none;stroke-width:0.25pt;stroke-linecap:butt;stroke-linejoin:miter;marker:none;marker-start:none;marker-mid:none;marker-end:none;stroke-miterlimit:4;stroke-dasharray:none;stroke-dashoffset:0;stroke-opacity:1;visibility:visible;display:inline;overflow:visible;filter:url(#filter12589);enable-background:accumulate"
           d="M 115.7775,122.89449 C 114.56188,122.89449 113.38472,123.04767 112.2775,123.36324 C 111.19772,123.67468 110.24904,124.14628 109.4025,124.80074 C 107.69571,125.93952 106.5275,127.50399 106.5275,129.51949 C 106.5275,131.68729 107.66978,133.3667 109.5275,134.55074 C 111.33172,135.69776 113.4702,136.23823 115.87125,136.23824 C 118.24074,136.23824 120.39264,135.66574 122.24625,134.45699 C 123.98597,133.29487 125.12125,131.66579 125.12125,129.61324 C 125.12125,127.50169 123.88765,125.86803 122.05875,124.67574 C 120.2559,123.44778 118.14697,122.89449 115.7775,122.89449 z M 256.84,122.98824 L 256.93375,175.58199 C 256.93375,177.6318 257.36403,179.55202 258.24625,181.23824 C 259.14767,182.87096 260.62966,184.40369 262.55875,185.83199 C 266.55958,188.88749 271.10587,190.39449 276.18375,190.39449 L 300.34,190.39449 C 302.81102,190.39449 305.37018,189.98355 307.99625,189.20699 C 315.38323,186.88415 319.80874,182.79971 319.80875,176.61324 L 319.80875,152.48824 L 319.34,150.17574 C 318.41525,146.39444 316.19581,143.56455 312.715,141.86324 C 309.33569,140.13724 304.61334,139.36323 298.715,139.36324 L 271.2775,139.36324 L 271.2775,122.98824 L 256.84,122.98824 z M 325.965,122.98824 L 325.965,190.39449 L 340.215,190.39449 L 340.215,122.98824 L 325.965,122.98824 z M 13.527502,124.11324 L 46.902502,185.26949 C 47.958958,187.30557 49.387768,188.89076 51.183752,189.83199 C 52.904275,190.64834 55.095655,191.01948 57.590002,191.01949 C 62.604751,191.01949 66.38395,189.20584 68.433752,185.26949 L 101.715,124.11324 L 85.7775,124.11324 L 57.590002,176.23824 L 29.465002,124.11324 L 13.527502,124.11324 z M 128.1525,124.11324 L 128.1525,134.11324 L 157.68375,134.11324 L 157.68375,190.70699 L 172.6525,190.70699 L 172.6525,134.11324 L 202.30875,134.11324 L 202.30875,124.11324 L 128.1525,124.11324 z M 108.55875,139.36324 L 108.55875,190.39449 L 122.80875,190.39449 L 122.80875,139.36324 L 108.55875,139.36324 z M 187.49625,139.36324 L 187.49625,149.45699 L 232.93375,149.58199 C 234.1178,149.58199 235.11815,149.92173 235.99625,150.61324 C 236.49155,151.10854 236.62124,151.48623 236.62125,151.83199 L 236.62125,154.11324 L 207.2775,154.11324 C 201.38876,154.11324 196.52327,155.41492 192.9025,158.20699 C 189.23919,161.01279 187.49624,165.20685 187.49625,170.39449 L 187.80875,176.20699 C 187.80875,181.58534 191.0929,185.51522 196.80875,188.05074 C 200.41718,189.60524 203.93981,190.39449 207.37125,190.39449 L 231.93375,190.39449 C 238.47284,190.39449 243.81066,188.24063 247.80875,183.80074 C 249.768,181.69194 250.87262,179.34995 250.87125,176.80074 L 250.87125,151.42574 L 250.465,148.86324 C 249.25625,145.3824 247.12753,142.84853 243.965,141.42574 C 241.00691,139.98374 236.986,139.36323 232.0275,139.36324 L 187.49625,139.36324 z M 369.965,139.36324 C 355.24589,139.36324 346.37125,143.95658 346.37125,154.48824 L 346.37125,176.51949 C 346.37125,180.02915 347.85464,182.98962 350.68375,185.36324 C 354.66949,188.818 360.27636,190.3945 367.24625,190.39449 L 409.5275,190.39449 L 409.5275,180.30074 L 368.0275,180.30074 C 365.01041,180.30074 363.30574,179.90868 362.49625,179.42574 C 361.84043,178.92494 361.13027,177.80422 360.62125,175.20699 L 360.62125,174.30074 L 408.715,159.45699 L 408.715,152.86324 C 408.715,148.47413 406.71977,145.04873 402.87125,142.73824 C 399.1997,140.41678 394.27769,139.36323 388.24625,139.36324 L 369.965,139.36324 z M 432.4025,139.36324 C 427.30679,139.36324 423.10284,140.29423 419.965,142.36324 C 416.73387,144.49126 415.09001,147.59062 415.09,151.45699 L 415.09,157.70699 C 415.09,159.83776 415.84999,161.69714 417.34,163.26949 C 419.11128,165.34674 421.36348,166.78394 424.12125,167.67574 C 426.84747,168.56206 430.33047,168.98824 434.5275,168.98824 L 451.215,168.98824 C 453.9618,168.98824 455.53905,169.43121 456.30875,169.98824 C 456.9385,170.40671 457.43375,171.13343 457.43375,172.55074 L 457.43375,176.30074 C 457.43375,177.36269 457.21273,178.02054 457.0275,178.33199 C 456.86697,178.64892 456.49797,179.07724 455.9025,179.42574 C 454.95442,180.03903 454.11427,180.30074 453.43375,180.30074 L 450.4025,180.30074 L 414.7775,180.30074 L 414.7775,190.39449 L 455.05875,190.39449 C 458.04428,190.39449 461.26773,189.59503 464.6525,188.11324 C 466.39909,187.20497 467.89193,186.16131 468.84,184.98824 C 470.61129,182.99742 471.68376,180.85649 471.68375,178.61324 L 471.68375,170.95699 C 471.68375,167.77664 470.14655,165.08774 467.4025,162.95699 C 464.69413,160.84544 461.11508,159.49255 456.715,158.76949 L 453.24625,158.67574 L 434.93375,158.67574 C 432.57798,158.67574 431.08274,158.04347 430.1525,157.11324 C 429.52273,156.53425 429.33999,156.03794 429.34,155.67574 L 429.34,152.14449 C 429.34,150.83146 429.79653,150.41829 430.49625,150.20699 C 432.107,149.66915 433.08022,149.48825 433.5275,149.48824 L 435.74625,149.48824 L 471.87125,149.48824 L 471.87125,139.36324 L 432.4025,139.36324 z M 278.12125,149.48824 L 298.30875,149.48824 C 301.29977,149.48824 303.16877,150.00454 304.1525,150.70699 C 304.97847,151.25993 305.5275,152.19121 305.5275,153.95699 L 305.4025,176.23824 C 304.71648,178.51031 303.30904,179.73868 300.9025,180.11324 L 299.62125,180.30074 L 278.215,180.30074 C 276.89922,180.30074 275.4125,179.94576 273.68375,179.14449 C 271.97419,178.26365 271.27749,177.08072 271.2775,175.39449 L 271.2775,153.76949 C 271.2775,151.89668 271.76605,150.99771 272.24625,150.58199 C 272.84584,150.05788 274.26991,149.582 276.87125,149.58199 L 278.12125,149.48824 z M 366.7775,149.48824 C 367.11346,149.47226 367.46818,149.48824 367.84,149.48824 L 387.965,149.48824 C 390.95465,149.48824 392.66402,149.91122 393.43375,150.42574 C 394.02646,150.78659 394.465,151.44 394.465,152.76949 L 360.62125,163.23824 L 360.62125,154.67574 C 360.62125,152.56967 361.22974,151.39544 362.09,150.73824 C 362.94597,150.08636 364.4258,149.60007 366.7775,149.48824 z M 209.2775,164.23824 L 210.59,164.23824 L 227.68375,164.23824 L 228.9025,164.23824 C 231.5848,164.23824 233.26479,164.62999 234.1525,165.14449 C 234.99904,165.58903 235.77195,166.41618 236.62125,168.51949 L 236.62125,176.20699 L 236.34,176.89449 C 235.7075,178.44901 234.93106,179.23318 234.09,179.61324 C 233.16114,180.00426 231.05833,180.30074 227.465,180.30074 L 210.80875,180.30074 C 207.33889,180.30074 205.16049,179.98978 204.05875,179.55074 C 203.1985,179.12129 202.45193,178.33558 201.84,176.98824 L 201.74625,176.33199 L 201.74625,168.51949 L 201.84,167.70699 C 202.40117,166.34869 203.11634,165.56022 203.9025,165.14449 C 204.87664,164.60803 206.60479,164.23823 209.2775,164.23824 z"
           id="path2926"
           transform="matrix(0.9063874,0,0,0.9063874,5.7950732,22.881841)" />
        <path
           i:knockout="Off"
           d="M 63.270286,184.51194 C 61.412371,188.0798 57.961413,189.71014 53.416107,189.71014 C 51.155264,189.71014 49.170501,189.37685 47.611041,188.63693 C 45.98318,187.78382 44.701046,186.35867 43.743488,184.51319 L 13.49322,129.06909 L 27.93998,129.06909 L 53.418587,176.31049 L 78.984253,129.06909 L 93.42604,129.06909 L 63.270286,184.51194 L 63.270286,184.51194 z"
           id="path2535"
           style="fill:#ff9600" />
        <polygon
           i:knockout="Off"
           points="79.731,205.427 79.731,168.226 90.122,168.226 90.122,205.427 79.731,205.427 "
           id="polygon2537"
           style="fill:#ff9600"
           transform="matrix(1.2435873,0,0,1.2435873,0.4679494,-66.304775)" />
        <polygon
           i:knockout="Off"
           points="126.457,164.401 126.457,205.647 115.552,205.647 115.552,164.403 94.02,164.401 94.02,157.104 148.063,157.104 148.063,164.401 126.457,164.401 "
           id="polygon2539"
           style="fill:#ff9600"
           transform="matrix(1.2435873,0,0,1.2435873,0.4679494,-66.304775)" />
        <path
           i:knockout="Off"
           clip-rule="evenodd"
           d="M 225.84322,183.17384 C 222.21939,187.19809 217.3719,189.16048 211.44495,189.16048 L 189.18723,189.16048 C 186.07703,189.16048 182.87354,188.42925 179.6029,187.02027 C 174.42212,184.72211 171.4599,181.16421 171.4599,176.28935 L 171.18506,171.01654 C 171.18506,166.31453 172.76069,162.51787 176.08106,159.97473 C 179.3629,157.44403 183.75773,156.27256 189.09521,156.27256 L 215.70051,156.27256 L 215.70051,154.21318 C 215.70051,153.89981 215.58362,153.53543 215.13468,153.0865 C 214.33879,152.45973 213.43096,152.1563 212.35775,152.1563 L 171.18382,152.06177 L 171.18382,142.89778 L 211.53449,142.89778 C 216.02882,142.89778 219.66382,143.47605 222.345,144.78306 C 225.21147,146.07266 227.16639,148.36335 228.26199,151.51833 L 228.62138,153.83265 L 228.62138,176.83901 C 228.62263,179.14959 227.61905,181.26245 225.84322,183.17384 L 225.84322,183.17384 z M 215.70051,176.29805 L 215.70051,169.32774 C 214.93073,167.42133 214.22687,166.66025 213.45957,166.25733 C 212.65497,165.79098 211.12784,165.43905 208.69664,165.43905 L 207.59606,165.43905 L 192.11713,165.43905 L 190.92577,165.43905 C 188.50326,165.43905 186.93883,165.77855 186.05587,166.26479 C 185.34331,166.64159 184.68172,167.35044 184.17308,168.58159 L 184.1047,169.32774 L 184.1047,176.39878 L 184.16562,177.00067 C 184.72026,178.22188 185.41917,178.94316 186.19889,179.33241 C 187.19749,179.73036 189.1549,179.99772 192.29993,179.99772 L 207.41201,179.99772 C 210.66897,179.99772 212.56045,179.74528 213.40236,179.39086 C 214.16468,179.04638 214.8698,178.32013 215.44309,176.91113 L 215.70051,176.29805 L 215.70051,176.29805 z"
           id="path2541"
           style="fill:#ff9600;fill-rule:evenodd" />
        <path
           i:knockout="Off"
           clip-rule="evenodd"
           d="M 280.39939,188.08975 C 278.01916,188.79361 275.69489,189.16048 273.45519,189.16048 L 251.56309,189.16048 C 246.96057,189.16048 242.82938,187.77885 239.20307,185.00938 C 237.45458,183.7148 236.114,182.3307 235.29697,180.85082 C 234.49734,179.32246 234.11182,177.59884 234.11182,175.74092 L 234.01482,128.06178 L 247.12348,128.06178 L 247.12348,142.89778 L 271.98776,142.89778 C 277.33394,142.89778 281.60069,143.60165 284.66365,145.16608 C 287.81862,146.70813 289.8494,149.27615 290.68758,152.70348 L 291.08802,154.80389 L 291.08802,176.65371 C 291.08802,182.26105 287.09486,185.98435 280.39939,188.08975 L 280.39939,188.08975 z M 278.16714,156.13825 C 278.16714,154.53776 277.64733,153.67099 276.89869,153.16981 C 276.00704,152.5331 274.33193,152.06426 271.62091,152.06426 L 253.30286,152.06426 L 252.17119,152.1538 C 249.81336,152.1538 248.52252,152.59155 247.97906,153.06659 C 247.54381,153.4434 247.12348,154.25671 247.12348,155.9542 L 247.12348,175.55563 C 247.12348,177.084 247.74775,178.1597 249.29727,178.95808 C 250.86418,179.68434 252.20228,179.99524 253.39489,179.99524 L 272.79733,179.99524 L 273.96382,179.82736 C 276.14507,179.48786 277.42473,178.37733 278.04652,176.31795 L 278.16714,156.13825 L 278.16714,156.13825 z"
           id="path2543"
           style="fill:#ff9600;fill-rule:evenodd" />
        <polygon
           i:knockout="Off"
           points="238.184,205.427 238.184,156.296 248.574,156.296 248.574,205.427 238.184,205.427 "
           id="polygon2545"
           style="fill:#ff9600"
           transform="matrix(1.2435873,0,0,1.2435873,0.4679494,-66.304775)" />
        <path
           i:knockout="Off"
           clip-rule="evenodd"
           d="M 334.08878,189.16172 C 327.77135,189.16172 322.7025,187.71916 319.08988,184.5878 C 316.5256,182.43639 315.17009,179.74652 315.17009,176.56542 L 315.17009,156.59714 C 315.17009,147.05137 323.21982,142.89778 336.56103,142.89778 L 353.13805,142.89778 C 358.60486,142.89778 363.06187,143.85907 366.38972,145.96322 C 369.87797,148.05743 371.68988,151.15148 371.68988,155.12971 L 371.68988,161.10266 L 328.09096,174.56573 L 328.09096,175.37407 C 328.55232,177.72818 329.19153,178.75289 329.78596,179.20681 C 330.51968,179.64454 332.08411,179.99648 334.81877,179.99648 L 372.42484,179.99648 L 372.42484,189.16048 L 334.08878,189.16048 L 334.08878,189.16172 z M 358.76902,155.04017 C 358.76902,153.83513 358.35863,153.25438 357.8214,152.92731 C 357.12374,152.46097 355.57672,152.06551 352.86695,152.06551 L 334.63844,152.06551 C 331.94234,152.06551 330.30579,152.54678 329.41911,153.22204 C 328.63938,153.81773 328.09345,154.87104 328.09345,156.77995 L 328.09345,164.52626 L 358.76902,155.04017 L 358.76902,155.04017 z"
           id="path2547"
           style="fill:#ff9600;fill-rule:evenodd" />
        <path
           i:knockout="Off"
           d="M 396.19104,152.06551 L 394.17518,152.06551 C 393.76978,152.06551 392.88807,152.24085 391.4281,152.72834 C 390.79387,152.91985 390.37603,153.29915 390.37603,154.48926 L 390.37603,157.69523 C 390.37603,158.02353 390.53147,158.46004 391.10228,158.98483 C 391.94543,159.82798 393.3196,160.39381 395.45484,160.39381 L 412.05673,160.3963 L 415.20424,160.48832 C 419.19243,161.1437 422.41581,162.3736 424.87064,164.28749 C 427.35783,166.21877 428.75438,168.64502 428.75438,171.52764 L 428.75438,178.48925 C 428.75438,180.52251 427.77816,182.45381 426.17268,184.25826 C 425.31336,185.32153 423.98149,186.26665 422.39839,187.0899 C 419.33047,188.43297 416.38938,189.16172 413.68333,189.16172 L 377.17908,189.16172 L 377.17908,179.99772 L 409.46882,179.99772 L 412.2159,179.99772 C 412.83273,179.99772 413.58882,179.7689 414.44815,179.21302 C 414.98786,178.89715 415.32487,178.50666 415.47037,178.21939 C 415.63826,177.9371 415.83225,177.34266 415.83225,176.38012 L 415.83225,172.99135 C 415.83225,171.70672 415.40446,171.0439 414.83366,170.6646 C 414.136,170.15971 412.69096,169.74435 410.20129,169.74435 L 395.08922,169.74435 C 391.28508,169.74435 388.11643,169.37251 385.64542,168.56916 C 383.14581,167.76083 381.09388,166.45133 379.48842,164.56854 C 378.13789,163.14339 377.45267,161.45957 377.45267,159.52827 L 377.45267,153.85005 C 377.45267,150.34563 378.96113,147.55253 381.88979,145.62372 C 384.73388,143.7484 388.54546,142.89903 393.16415,142.89903 L 428.93469,142.89903 L 428.93469,152.06551 L 396.19104,152.06551 L 396.19104,152.06551 z"
           id="path2549"
           style="fill:#ff9600" />
        <path
           i:knockout="Off"
           d="M 106.26483,140.06614 C 104.08856,140.06614 102.1411,139.58736 100.50578,138.54771 C 98.821961,137.4745 97.789787,135.93618 97.789787,133.97131 C 97.789787,132.14449 98.83813,130.72182 100.38515,129.68964 C 101.15245,129.09645 102.02918,128.67487 103.00787,128.39259 C 104.01145,128.10655 105.06974,127.96976 106.17156,127.96976 C 108.31924,127.96976 110.23312,128.48461 111.8672,129.59761 C 113.52489,130.67829 114.64785,132.15071 114.64785,134.06459 C 114.64785,135.925 113.62065,137.38993 112.04379,138.44326 C 110.36369,139.53885 108.4125,140.06614 106.26483,140.06614 L 106.26483,140.06614 z"
           id="path2799"
           style="fill:#0c479d" />
      </g>
      <g
         transform="matrix(0.4952097,0,0,0.4952097,198.59225,30.391259)"
         id="g2481">
        <g
           id="g2478">
          <path
             transform="matrix(0.4457136,-0.1446565,0.1446565,0.4457136,200.47195,78.157952)"
             id="path2958"
             d="M 386.97046,30.131149 L 386.56421,30.256149 C 386.56312,30.255709 386.50171,30.224899 386.50171,30.224899 L 386.47046,30.287399 L 311.12671,52.756149 C 308.23724,57.762389 305.62185,62.531699 303.28296,67.193649 C 289.83188,70.201139 275.62385,73.472479 261.09546,76.912399 C 261.72418,74.895459 262.38967,72.932149 263.06421,71.068649 C 263.06421,71.068649 251.35255,76.067559 250.84546,76.068649 C 250.38471,77.244139 249.90366,78.448159 249.43921,79.693649 C 225.48795,85.426849 201.54585,91.332399 179.65796,96.818649 C 180.48401,94.045209 181.38431,91.337889 182.37671,88.787399 C 182.37671,88.787399 171.62418,93.077939 168.62671,94.287399 C 167.99736,95.838289 167.35754,97.789369 166.75171,100.06865 C 141.24835,106.5036 124.57473,110.79292 112.31421,113.9749 C 108.4121,111.74546 103.89782,110.73927 99.251714,111.38115 C 87.295024,113.0315 79.074404,124.94043 80.876714,137.9749 C 82.680534,151.00917 93.829264,160.21858 105.78296,158.56865 C 109.80922,158.0124 113.40529,156.28896 116.34546,153.75615 C 123.28512,154.59096 139.56167,156.46192 159.68921,158.75615 C 159.65129,160.29473 159.60378,161.80804 159.59546,163.2874 C 159.59546,163.2874 168.74084,163.56121 171.81421,163.25615 C 171.7876,162.28582 171.75993,161.25152 171.75171,160.13115 C 193.47565,162.60174 209.99539,164.46065 232.25171,166.9749 C 232.21478,168.44832 232.1975,169.89951 232.18921,171.38115 C 232.18921,171.38115 243.81798,173.3271 247.90796,173.38115 C 247.76407,172.30691 247.71199,170.65183 247.68921,168.7249 C 267.7191,170.98488 287.725,173.22466 293.00171,173.81865 C 294.46958,179.60122 296.03197,184.4177 297.34546,187.56865 C 321.06356,190.952 363.58495,199.15737 370.62671,198.0374 C 370.79865,197.70589 370.93906,197.41799 371.09546,197.0999 C 401.0548,187.21183 417.74574,168.22296 429.87671,140.4124 C 443.35926,109.50781 438.88803,68.576519 413.03296,45.443649 C 404.02857,37.383539 387.70982,30.711729 386.81421,30.349899 C 386.82791,30.327669 386.97046,30.131149 386.97046,30.131149 z M 368.18921,64.381149 C 369.28906,64.836759 370.36417,65.343579 371.40796,65.849899 C 370.21357,65.450849 369.08082,65.094459 368.00171,64.787399 C 368.06728,64.654189 368.12364,64.513989 368.18921,64.381149 z"
             style="fill:#666666;fill-opacity:1;fill-rule:evenodd;stroke:none;stroke-width:0.48356113pt;stroke-linecap:butt;stroke-linejoin:miter;marker:none;marker-start:none;marker-mid:none;marker-end:none;stroke-miterlimit:4;stroke-dasharray:none;stroke-dashoffset:0;stroke-opacity:1;visibility:visible;display:inline;overflow:visible;filter:url(#filter4087);enable-background:accumulate" />
        </g>
        <path
           style="fill:#ffdb00"
           id="path1781"
           d="M 362.92001,46.478832 C 360.70084,66.039179 361.32051,80.403031 369.475,94.046687 C 377.62949,107.69034 388.20048,102.19566 388.20048,102.19566 C 393.25005,97.244388 397.4814,88.82246 397.50575,76.983174 C 397.53009,65.143888 386.83209,51.666756 379.88814,47.996682 C 372.94227,44.326022 362.92001,46.478832 362.92001,46.478832 L 362.92001,46.478832 z"
           i:knockout="Off" />
        <g
           id="g2456">
          <g
             id="g1939"
             transform="matrix(0.6278826,-0.334361,0.334361,0.6278826,194.38555,71.420022)">
            <g
               id="g1933">
              <path
                 i:knockout="Off"
                 d="M 36.937297,104.27203 C 36.936297,95.604035 43.378297,88.579035 51.329297,88.580035 C 59.279297,88.580035 65.725297,95.608035 65.726297,104.27403 C 65.728297,112.94203 59.285297,119.96703 51.334297,119.96703 C 43.385297,119.96603 36.939297,112.94003 36.937297,104.27203 L 36.937297,104.27203 z"
                 id="path1777" />
              <path
                 i:knockout="Off"
                 d="M 48.41172,92.77244 C 41.43572,101.91344 42.36072,113.47744 57.99172,117.60244 C 73.62272,121.72544 179.15672,148.59844 179.15672,148.59844 L 209.42472,76.55644 C 152.43572,80.29644 48.41172,92.77244 48.41172,92.77244 L 48.41172,92.77244 z"
                 id="path1779"
                 style="fill:#ff9600" />
              <path
                 i:knockout="Off"
                 d="M 246.08172,61.53344 L 230.19072,81.66744 C 247.09472,91.00844 251.46972,109.30644 252.21572,119.41644 C 253.74272,140.11744 233.79372,161.40044 222.62172,163.47144 C 220.71372,167.63344 219.95572,169.22744 219.95572,169.22744 C 241.00872,165.65744 253.86372,154.67244 264.46172,137.33244 C 276.04572,118.38144 276.80972,91.27044 262.02372,73.84444 C 256.73072,67.60344 246.08172,61.53344 246.08172,61.53344 L 246.08172,61.53344 z"
                 id="path1783"
                 style="fill:#0c479d" />
              <path
                 i:knockout="Off"
                 d="M 194.86372,69.43244 C 181.87172,86.14644 175.13172,99.02044 172.20172,120.67444 C 170.34472,134.39944 172.05672,149.85044 173.71772,156.15344 C 188.88972,160.49944 215.91072,169.68844 220.60672,169.59244 C 223.51672,165.47944 223.99772,162.88344 223.99772,162.88344 C 216.75372,160.56344 213.63072,156.48144 210.66972,149.45944 C 207.71072,142.43944 209.54072,121.57644 218.98572,102.39744 C 228.43072,83.21644 246.39172,61.50844 246.39172,61.50844 L 194.86372,69.43244 L 194.86372,69.43244 z"
                 id="path1785" />
            </g>
            <path
               id="path1787"
               d="M 161.85572,77.05344 C 151.15972,97.37044 142.77672,135.17844 142.74672,142.43644 C 140.08272,142.03244 132.65672,139.73144 132.65672,139.73144 C 136.19572,115.13144 145.70572,92.99144 153.43572,79.19944 C 153.76672,79.24444 161.85572,77.05344 161.85572,77.05344 L 161.85572,77.05344 z"
               i:knockout="Off" />
            <path
               id="path1789"
               d="M 107.60372,81.34344 C 99.40272,96.06144 95.10272,118.90544 93.99072,128.98544 C 91.95772,128.90744 86.03472,127.89344 86.03472,127.89344 C 88.31672,112.03444 94.08872,90.71244 98.14272,83.67744 C 100.20772,83.15844 107.60372,81.34344 107.60372,81.34344 L 107.60372,81.34344 z"
               i:knockout="Off" />
          </g>
        </g>
        <path
           style="fill:#ffffff"
           id="path1791"
           d="M 379.37133,61.614184 C 379.37133,61.614184 384.98259,72.597794 384.98142,75.427251 C 386.97862,75.772478 389.11189,75.282025 389.11189,75.282025 C 388.46776,69.92867 384.40046,62.843248 383.69681,61.888157 C 383.91188,61.786526 379.37133,61.614184 379.37133,61.614184 L 379.37133,61.614184 z"
           i:knockout="Off" />
        <path
           style="fill:#ffffff"
           id="path1793"
           d="M 384.99872,80.561529 C 384.6648,83.804327 384.50816,85.16435 383.96033,85.679322 C 385.72059,86.649601 388.48004,86.37856 388.48004,86.37856 L 389.14885,79.893256 L 384.99872,80.561529 L 384.99872,80.561529 z"
           i:knockout="Off" />
      </g>
    </g>
  </g>
</svg>
