<?xml version="1.0" encoding="UTF-8" standalone="no"?>
<!-- Created with Inkscape (http://www.inkscape.org/) -->

<svg
   xmlns:i="http://ns.adobe.com/AdobeIllustrator/10.0/"
   xmlns:dc="http://purl.org/dc/elements/1.1/"
   xmlns:cc="http://creativecommons.org/ns#"
   xmlns:rdf="http://www.w3.org/1999/02/22-rdf-syntax-ns#"
   xmlns:svg="http://www.w3.org/2000/svg"
   xmlns="http://www.w3.org/2000/svg"
   xmlns:sodipodi="http://sodipodi.sourceforge.net/DTD/sodipodi-0.dtd"
   xmlns:inkscape="http://www.inkscape.org/namespaces/inkscape"
   width="500"
   height="220"
   id="svg2516"
   sodipodi:version="0.32"
   inkscape:version="0.92.4 (5da689c313, 2019-01-14)"
   version="1.0"
   sodipodi:docname="vitables_logo.svg"
   inkscape:output_extension="org.inkscape.output.svg.inkscape"
   inkscape:export-filename="C:\Users\uvema\ViTables\GitHub\vitables\icons\vitables_logo.png"
   inkscape:export-xdpi="90"
   inkscape:export-ydpi="90"
   enable-background="new">
  <defs
     id="defs2518">
    <inkscape:perspective
       sodipodi:type="inkscape:persp3d"
       inkscape:vp_x="0 : 110 : 1"
       inkscape:vp_y="0 : 1000 : 0"
       inkscape:vp_z="500 : 110 : 1"
       inkscape:persp3d-origin="250 : 73.333333 : 1"
       id="perspective3699" />
    <filter
       id="filter12589">
      <feGaussianBlur
         id="feGaussianBlur12591"
         stdDeviation="4.2009766"
         inkscape:collect="always" />
    </filter>
    <clipPath
       id="XMLID_39_">
      <path
         id="use2587"
         d="M 198.279,24.74 C 198.279,18.188 203.59,12.876 210.142,12.876 C 216.694,12.876 222.005,18.188 222.005,24.74 C 222.005,31.292 216.694,36.604 210.142,36.604 C 203.59,36.604 198.279,31.292 198.279,24.74 L 198.279,24.74 z " />
    </clipPath>
    <filter
       inkscape:collect="always"
       x="-0.081248639"
       width="1.1624973"
       y="-0.12926642"
       height="1.2585328"
       id="filter4087">
      <feGaussianBlur
         inkscape:collect="always"
         stdDeviation="11.364433"
         id="feGaussianBlur4089" />
    </filter>
  </defs>
  <sodipodi:namedview
     inkscape:document-units="mm"
     pagecolor="#ffffff"
     bordercolor="#666666"
     borderopacity="1.0"
     inkscape:pageopacity="0.0"
     inkscape:pageshadow="2"
     inkscape:zoom="1.882"
     inkscape:cx="249.17066"
     inkscape:cy="115.3135"
     inkscape:current-layer="layer1"
     id="namedview2520"
     height="220px"
     width="500px"
     inkscape:window-width="1600"
     inkscape:window-height="877"
     inkscape:window-x="-8"
     inkscape:window-y="-8"
     showgrid="false"
     inkscape:window-maximized="1" />
  <metadata
     id="metadata2522">
    <rdf:RDF>
      <cc:Work
         rdf:about="">
        <dc:format>image/svg+xml</dc:format>
        <dc:type
           rdf:resource="http://purl.org/dc/dcmitype/StillImage" />
        <dc:title />
      </cc:Work>
    </rdf:RDF>
  </metadata>
  <g
     inkscape:groupmode="layer"
     id="layer2"
     inkscape:label="capa_blanca"
     style="opacity:1;display:inline">
    <rect
       style="opacity:1;fill:#ffffff;fill-opacity:1;fill-rule:nonzero;stroke:#000000;stroke-width:0;stroke-linecap:butt;stroke-linejoin:miter;stroke-miterlimit:4;stroke-dasharray:none;stroke-opacity:1"
       id="rect2418"
       width="500"
       height="219.97874"
       x="0"
       y="0.021253984" />
  </g>
  <g
     inkscape:label="Layer 1"
     inkscape:groupmode="layer"
     id="layer1">
    <g
       id="g4091"
       transform="translate(-0.5327358,0.9781762)">
      <path
         transform="matrix(0.4917474,-0.1595968,0.1595968,0.4917474,220.31603,65.006907)"
         id="path2958"
         d="M 386.97046,30.131149 L 386.56421,30.256149 C 386.56312,30.255709 386.50171,30.224899 386.50171,30.224899 L 386.47046,30.287399 L 311.12671,52.756149 C 308.23724,57.762389 305.62185,62.531699 303.28296,67.193649 C 289.83188,70.201139 275.62385,73.472479 261.09546,76.912399 C 261.72418,74.895459 262.38967,72.932149 263.06421,71.068649 C 263.06421,71.068649 251.35255,76.067559 250.84546,76.068649 C 250.38471,77.244139 249.90366,78.448159 249.43921,79.693649 C 225.48795,85.426849 201.54585,91.332399 179.65796,96.818649 C 180.48401,94.045209 181.38431,91.337889 182.37671,88.787399 C 182.37671,88.787399 171.62418,93.077939 168.62671,94.287399 C 167.99736,95.838289 167.35754,97.789369 166.75171,100.06865 C 141.24835,106.5036 124.57473,110.79292 112.31421,113.9749 C 108.4121,111.74546 103.89782,110.73927 99.251714,111.38115 C 87.295024,113.0315 79.074404,124.94043 80.876714,137.9749 C 82.680534,151.00917 93.829264,160.21858 105.78296,158.56865 C 109.80922,158.0124 113.40529,156.28896 116.34546,153.75615 C 123.28512,154.59096 139.56167,156.46192 159.68921,158.75615 C 159.65129,160.29473 159.60378,161.80804 159.59546,163.2874 C 159.59546,163.2874 168.74084,163.56121 171.81421,163.25615 C 171.7876,162.28582 171.75993,161.25152 171.75171,160.13115 C 193.47565,162.60174 209.99539,164.46065 232.25171,166.9749 C 232.21478,168.44832 232.1975,169.89951 232.18921,171.38115 C 232.18921,171.38115 243.81798,173.3271 247.90796,173.38115 C 247.76407,172.30691 247.71199,170.65183 247.68921,168.7249 C 267.7191,170.98488 287.725,173.22466 293.00171,173.81865 C 294.46958,179.60122 296.03197,184.4177 297.34546,187.56865 C 321.06356,190.952 363.58495,199.15737 370.62671,198.0374 C 370.79865,197.70589 370.93906,197.41799 371.09546,197.0999 C 401.0548,187.21183 417.74574,168.22296 429.87671,140.4124 C 443.35926,109.50781 438.88803,68.576519 413.03296,45.443649 C 404.02857,37.383539 387.70982,30.711729 386.81421,30.349899 C 386.82791,30.327669 386.97046,30.131149 386.97046,30.131149 z M 368.18921,64.381149 C 369.28906,64.836759 370.36417,65.343579 371.40796,65.849899 C 370.21357,65.450849 369.08082,65.094459 368.00171,64.787399 C 368.06728,64.654189 368.12364,64.513989 368.18921,64.381149 z "
         style="opacity:1;color:#000000;fill:#666666;fill-opacity:1;fill-rule:evenodd;stroke:none;stroke-width:0.48356113pt;stroke-linecap:butt;stroke-linejoin:miter;marker:none;marker-start:none;marker-mid:none;marker-end:none;stroke-miterlimit:4;stroke-dasharray:none;stroke-dashoffset:0;stroke-opacity:1;visibility:visible;display:inline;overflow:visible;filter:url(#filter4087);enable-background:accumulate" />
      <g
         id="g1948"
         transform="matrix(0.692731,-0.3688941,0.3688941,0.692731,226.57826,30.359032)">
        <path
           style="fill:#ffdb00"
           id="path1781"
           d="M 194.703,103.246 C 179.025,126.05 170.303,144.282 171.406,166.599 C 172.509,188.916 189.256,189.083 189.256,189.083 C 198.793,186.276 209.608,178.622 217.461,163.948 C 225.314,149.274 220.945,125.483 214.754,116.341 C 208.561,107.197 194.703,103.246 194.703,103.246 L 194.703,103.246 z "
           i:knockout="Off" />
        <g
           transform="translate(-30.89302,22.83396)"
           id="g1939">
          <g
             id="g1933">
            <path
               id="path1777"
               d="M 36.937297,104.27203 C 36.936297,95.604035 43.378297,88.579035 51.329297,88.580035 C 59.279297,88.580035 65.725297,95.608035 65.726297,104.27403 C 65.728297,112.94203 59.285297,119.96703 51.334297,119.96703 C 43.385297,119.96603 36.939297,112.94003 36.937297,104.27203 L 36.937297,104.27203 z "
               i:knockout="Off" />
            <path
               style="fill:#ff9600"
               id="path1779"
               d="M 48.41172,92.77244 C 41.43572,101.91344 42.36072,113.47744 57.99172,117.60244 C 73.62272,121.72544 179.15672,148.59844 179.15672,148.59844 L 209.42472,76.55644 C 152.43572,80.29644 48.41172,92.77244 48.41172,92.77244 L 48.41172,92.77244 z "
               i:knockout="Off" />
            <path
               style="fill:#0c479d"
               id="path1783"
               d="M 246.08172,61.53344 L 230.19072,81.66744 C 247.09472,91.00844 251.46972,109.30644 252.21572,119.41644 C 253.74272,140.11744 233.79372,161.40044 222.62172,163.47144 C 220.71372,167.63344 219.95572,169.22744 219.95572,169.22744 C 241.00872,165.65744 253.86372,154.67244 264.46172,137.33244 C 276.04572,118.38144 276.80972,91.27044 262.02372,73.84444 C 256.73072,67.60344 246.08172,61.53344 246.08172,61.53344 L 246.08172,61.53344 z "
               i:knockout="Off" />
            <path
               id="path1785"
               d="M 194.86372,69.43244 C 181.87172,86.14644 175.13172,99.02044 172.20172,120.67444 C 170.34472,134.39944 172.05672,149.85044 173.71772,156.15344 C 188.88972,160.49944 215.91072,169.68844 220.60672,169.59244 C 223.51672,165.47944 223.99772,162.88344 223.99772,162.88344 C 216.75372,160.56344 213.63072,156.48144 210.66972,149.45944 C 207.71072,142.43944 209.54072,121.57644 218.98572,102.39744 C 228.43072,83.21644 246.39172,61.50844 246.39172,61.50844 L 194.86372,69.43244 L 194.86372,69.43244 z "
               i:knockout="Off" />
          </g>
          <path
             i:knockout="Off"
             d="M 161.85572,77.05344 C 151.15972,97.37044 142.77672,135.17844 142.74672,142.43644 C 140.08272,142.03244 132.65672,139.73144 132.65672,139.73144 C 136.19572,115.13144 145.70572,92.99144 153.43572,79.19944 C 153.76672,79.24444 161.85572,77.05344 161.85572,77.05344 L 161.85572,77.05344 z "
             id="path1787" />
          <path
             i:knockout="Off"
             d="M 107.60372,81.34344 C 99.40272,96.06144 95.10272,118.90544 93.99072,128.98544 C 91.95772,128.90744 86.03472,127.89344 86.03472,127.89344 C 88.31672,112.03444 94.08872,90.71244 98.14272,83.67744 C 100.20772,83.15844 107.60372,81.34344 107.60372,81.34344 L 107.60372,81.34344 z "
             id="path1789" />
        </g>
        <path
           style="fill:#ffffff"
           id="path1791"
           d="M 205.115,132.896 C 205.115,132.896 204.82,150.232 202.949,153.742 C 205.199,155.49 208.17,156.291 208.17,156.291 C 210.908,149.223 210.543,137.744 210.301,136.094 C 210.635,136.11 205.115,132.896 205.115,132.896 L 205.115,132.896 z "
           i:knockout="Off" />
        <path
           style="fill:#ffffff"
           id="path1793"
           d="M 199.578,160.124 C 197.021,163.927 195.928,165.511 194.908,165.788 C 196.451,168.155 200.054,169.642 200.054,169.642 L 205.169,162.037 L 199.578,160.124 L 199.578,160.124 z "
           i:knockout="Off" />
      </g>
    </g>
    <g
       id="g4106"
       transform="translate(5,5)">
      <path
         id="path2926"
         d="M 115.7775,122.89449 C 114.56188,122.89449 113.38472,123.04767 112.2775,123.36324 C 111.19772,123.67468 110.24904,124.14628 109.4025,124.80074 C 107.69571,125.93952 106.5275,127.50399 106.5275,129.51949 C 106.5275,131.68729 107.66978,133.3667 109.5275,134.55074 C 111.33172,135.69776 113.4702,136.23823 115.87125,136.23824 C 118.24074,136.23824 120.39264,135.66574 122.24625,134.45699 C 123.98597,133.29487 125.12125,131.66579 125.12125,129.61324 C 125.12125,127.50169 123.88765,125.86803 122.05875,124.67574 C 120.2559,123.44778 118.14697,122.89449 115.7775,122.89449 z M 256.84,122.98824 L 256.93375,175.58199 C 256.93375,177.6318 257.36403,179.55202 258.24625,181.23824 C 259.14767,182.87096 260.62966,184.40369 262.55875,185.83199 C 266.55958,188.88749 271.10587,190.39449 276.18375,190.39449 L 300.34,190.39449 C 302.81102,190.39449 305.37018,189.98355 307.99625,189.20699 C 315.38323,186.88415 319.80874,182.79971 319.80875,176.61324 L 319.80875,152.48824 L 319.34,150.17574 C 318.41525,146.39444 316.19581,143.56455 312.715,141.86324 C 309.33569,140.13724 304.61334,139.36323 298.715,139.36324 L 271.2775,139.36324 L 271.2775,122.98824 L 256.84,122.98824 z M 325.965,122.98824 L 325.965,190.39449 L 340.215,190.39449 L 340.215,122.98824 L 325.965,122.98824 z M 13.527502,124.11324 L 46.902502,185.26949 C 47.958958,187.30557 49.387768,188.89076 51.183752,189.83199 C 52.904275,190.64834 55.095655,191.01948 57.590002,191.01949 C 62.604751,191.01949 66.38395,189.20584 68.433752,185.26949 L 101.715,124.11324 L 85.7775,124.11324 L 57.590002,176.23824 L 29.465002,124.11324 L 13.527502,124.11324 z M 128.1525,124.11324 L 128.1525,134.11324 L 157.68375,134.11324 L 157.68375,190.70699 L 172.6525,190.70699 L 172.6525,134.11324 L 202.30875,134.11324 L 202.30875,124.11324 L 128.1525,124.11324 z M 108.55875,139.36324 L 108.55875,190.39449 L 122.80875,190.39449 L 122.80875,139.36324 L 108.55875,139.36324 z M 187.49625,139.36324 L 187.49625,149.45699 L 232.93375,149.58199 C 234.1178,149.58199 235.11815,149.92173 235.99625,150.61324 C 236.49155,151.10854 236.62124,151.48623 236.62125,151.83199 L 236.62125,154.11324 L 207.2775,154.11324 C 201.38876,154.11324 196.52327,155.41492 192.9025,158.20699 C 189.23919,161.01279 187.49624,165.20685 187.49625,170.39449 L 187.80875,176.20699 C 187.80875,181.58534 191.0929,185.51522 196.80875,188.05074 C 200.41718,189.60524 203.93981,190.39449 207.37125,190.39449 L 231.93375,190.39449 C 238.47284,190.39449 243.81066,188.24063 247.80875,183.80074 C 249.768,181.69194 250.87262,179.34995 250.87125,176.80074 L 250.87125,151.42574 L 250.465,148.86324 C 249.25625,145.3824 247.12753,142.84853 243.965,141.42574 C 241.00691,139.98374 236.986,139.36323 232.0275,139.36324 L 187.49625,139.36324 z M 369.965,139.36324 C 355.24589,139.36324 346.37125,143.95658 346.37125,154.48824 L 346.37125,176.51949 C 346.37125,180.02915 347.85464,182.98962 350.68375,185.36324 C 354.66949,188.818 360.27636,190.3945 367.24625,190.39449 L 409.5275,190.39449 L 409.5275,180.30074 L 368.0275,180.30074 C 365.01041,180.30074 363.30574,179.90868 362.49625,179.42574 C 361.84043,178.92494 361.13027,177.80422 360.62125,175.20699 L 360.62125,174.30074 L 408.715,159.45699 L 408.715,152.86324 C 408.715,148.47413 406.71977,145.04873 402.87125,142.73824 C 399.1997,140.41678 394.27769,139.36323 388.24625,139.36324 L 369.965,139.36324 z M 432.4025,139.36324 C 427.30679,139.36324 423.10284,140.29423 419.965,142.36324 C 416.73387,144.49126 415.09001,147.59062 415.09,151.45699 L 415.09,157.70699 C 415.09,159.83776 415.84999,161.69714 417.34,163.26949 C 419.11128,165.34674 421.36348,166.78394 424.12125,167.67574 C 426.84747,168.56206 430.33047,168.98824 434.5275,168.98824 L 451.215,168.98824 C 453.9618,168.98824 455.53905,169.43121 456.30875,169.98824 C 456.9385,170.40671 457.43375,171.13343 457.43375,172.55074 L 457.43375,176.30074 C 457.43375,177.36269 457.21273,178.02054 457.0275,178.33199 C 456.86697,178.64892 456.49797,179.07724 455.9025,179.42574 C 454.95442,180.03903 454.11427,180.30074 453.43375,180.30074 L 450.4025,180.30074 L 414.7775,180.30074 L 414.7775,190.39449 L 455.05875,190.39449 C 458.04428,190.39449 461.26773,189.59503 464.6525,188.11324 C 466.39909,187.20497 467.89193,186.16131 468.84,184.98824 C 470.61129,182.99742 471.68376,180.85649 471.68375,178.61324 L 471.68375,170.95699 C 471.68375,167.77664 470.14655,165.08774 467.4025,162.95699 C 464.69413,160.84544 461.11508,159.49255 456.715,158.76949 L 453.24625,158.67574 L 434.93375,158.67574 C 432.57798,158.67574 431.08274,158.04347 430.1525,157.11324 C 429.52273,156.53425 429.33999,156.03794 429.34,155.67574 L 429.34,152.14449 C 429.34,150.83146 429.79653,150.41829 430.49625,150.20699 C 432.107,149.66915 433.08022,149.48825 433.5275,149.48824 L 435.74625,149.48824 L 471.87125,149.48824 L 471.87125,139.36324 L 432.4025,139.36324 z M 278.12125,149.48824 L 298.30875,149.48824 C 301.29977,149.48824 303.16877,150.00454 304.1525,150.70699 C 304.97847,151.25993 305.5275,152.19121 305.5275,153.95699 L 305.4025,176.23824 C 304.71648,178.51031 303.30904,179.73868 300.9025,180.11324 L 299.62125,180.30074 L 278.215,180.30074 C 276.89922,180.30074 275.4125,179.94576 273.68375,179.14449 C 271.97419,178.26365 271.27749,177.08072 271.2775,175.39449 L 271.2775,153.76949 C 271.2775,151.89668 271.76605,150.99771 272.24625,150.58199 C 272.84584,150.05788 274.26991,149.582 276.87125,149.58199 L 278.12125,149.48824 z M 366.7775,149.48824 C 367.11346,149.47226 367.46818,149.48824 367.84,149.48824 L 387.965,149.48824 C 390.95465,149.48824 392.66402,149.91122 393.43375,150.42574 C 394.02646,150.78659 394.465,151.44 394.465,152.76949 L 360.62125,163.23824 L 360.62125,154.67574 C 360.62125,152.56967 361.22974,151.39544 362.09,150.73824 C 362.94597,150.08636 364.4258,149.60007 366.7775,149.48824 z M 209.2775,164.23824 L 210.59,164.23824 L 227.68375,164.23824 L 228.9025,164.23824 C 231.5848,164.23824 233.26479,164.62999 234.1525,165.14449 C 234.99904,165.58903 235.77195,166.41618 236.62125,168.51949 L 236.62125,176.20699 L 236.34,176.89449 C 235.7075,178.44901 234.93106,179.23318 234.09,179.61324 C 233.16114,180.00426 231.05833,180.30074 227.465,180.30074 L 210.80875,180.30074 C 207.33889,180.30074 205.16049,179.98978 204.05875,179.55074 C 203.1985,179.12129 202.45193,178.33558 201.84,176.98824 L 201.74625,176.33199 L 201.74625,168.51949 L 201.84,167.70699 C 202.40117,166.34869 203.11634,165.56022 203.9025,165.14449 C 204.87664,164.60803 206.60479,164.23823 209.2775,164.23824 z "
         style="color:#000000;fill:#666666;fill-opacity:1;fill-rule:evenodd;stroke:none;stroke-width:0.25pt;stroke-linecap:butt;stroke-linejoin:miter;marker:none;marker-start:none;marker-mid:none;marker-end:none;stroke-miterlimit:4;stroke-dasharray:none;stroke-dashoffset:0;stroke-opacity:1;visibility:visible;display:inline;overflow:visible;filter:url(#filter12589);enable-background:accumulate" />
      <g
         transform="matrix(1.3342457,0,0,1.3342457,-117.62851,-361.47104)"
         id="g2610">
        <path
           i:knockout="Off"
           d="M 135.68702,404.56901 C 134.15072,407.51925 131.29714,408.86737 127.53865,408.86737 C 125.66917,408.86737 124.02798,408.59178 122.73847,407.97994 C 121.3924,407.27451 120.33221,406.09606 119.54041,404.57004 L 94.526617,358.7236 L 106.47257,358.7236 L 127.5407,397.78727 L 148.68082,358.7236 L 160.62266,358.7236 L 135.68702,404.56901 L 135.68702,404.56901 z "
           id="path2535"
           style="fill:#ff9600" />
        <polygon
           i:knockout="Off"
           points="79.731,205.427 79.731,168.226 90.122,168.226 90.122,205.427 79.731,205.427 "
           id="polygon2537"
           style="fill:#ff9600"
           transform="matrix(1.028316,0,0,1.028316,83.756087,197.16994)" />
        <polygon
           i:knockout="Off"
           points="126.457,164.401 126.457,205.647 115.552,205.647 115.552,164.403 94.02,164.401 94.02,157.104 148.063,157.104 148.063,164.401 126.457,164.401 "
           id="polygon2539"
           style="fill:#ff9600"
           transform="matrix(1.028316,0,0,1.028316,83.756087,197.16994)" />
        <path
           i:knockout="Off"
           clip-rule="evenodd"
           d="M 270.11775,403.46254 C 267.12123,406.79017 263.11286,408.41286 258.2119,408.41286 L 239.8071,408.41286 C 237.23529,408.41286 234.58634,407.80821 231.88187,406.64313 C 227.59791,404.7428 225.14846,401.80079 225.14846,397.76979 L 224.9212,393.40973 C 224.9212,389.52166 226.22408,386.38222 228.96968,384.27931 C 231.68341,382.18669 235.31748,381.21801 239.73101,381.21801 L 261.7308,381.21801 L 261.7308,379.51512 C 261.7308,379.25599 261.63414,378.95469 261.26292,378.58347 C 260.6048,378.0652 259.85412,377.81429 258.96669,377.81429 L 224.92017,377.73613 L 224.92017,370.15847 L 258.28594,370.15847 C 262.00228,370.15847 265.00804,370.63664 267.22509,371.7174 C 269.59536,372.78376 271.21188,374.67792 272.11782,377.28676 L 272.415,379.20046 L 272.415,398.2243 C 272.41603,400.13491 271.58618,401.88202 270.11775,403.46254 L 270.11775,403.46254 z M 261.7308,397.77698 L 261.7308,392.01327 C 261.09427,390.43687 260.51225,389.80754 259.87778,389.47436 C 259.21246,389.08874 257.94968,388.79773 255.93933,388.79773 L 255.02927,388.79773 L 242.22982,388.79773 L 241.24469,388.79773 C 239.24153,388.79773 237.94791,389.07846 237.2178,389.48053 C 236.62858,389.79211 236.08152,390.37825 235.66093,391.39628 L 235.60438,392.01327 L 235.60438,397.86028 L 235.65476,398.35798 C 236.11339,399.36779 236.69131,399.96421 237.33606,400.28608 C 238.1618,400.61514 239.78037,400.83622 242.38098,400.83622 L 254.87708,400.83622 C 257.57024,400.83622 259.1343,400.62748 259.83047,400.33441 C 260.46083,400.04956 261.04389,399.44903 261.51794,398.28394 L 261.7308,397.77698 L 261.7308,397.77698 z "
           id="path2541"
           style="fill:#ff9600;fill-rule:evenodd" />
        <path
           i:knockout="Off"
           clip-rule="evenodd"
           d="M 315.22997,407.52748 C 313.26177,408.1095 311.33985,408.41286 309.48785,408.41286 L 291.38538,408.41286 C 287.57958,408.41286 284.16352,407.2704 281.16495,404.98034 C 279.71913,403.90986 278.61061,402.76535 277.93501,401.54165 C 277.2738,400.27785 276.95502,398.8526 276.95502,397.3163 L 276.87481,357.89066 L 287.71429,357.89066 L 287.71429,370.15847 L 308.27444,370.15847 C 312.69517,370.15847 316.22332,370.7405 318.75607,372.03412 C 321.3649,373.30923 323.04414,375.43271 323.73723,378.26675 L 324.06835,380.00357 L 324.06835,398.07108 C 324.06835,402.70776 320.76642,405.78654 315.22997,407.52748 L 315.22997,407.52748 z M 313.38414,381.10695 C 313.38414,379.78351 312.95431,379.06678 312.33526,378.65236 C 311.59796,378.12587 310.21282,377.73819 307.97109,377.73819 L 292.82399,377.73819 L 291.88822,377.81223 C 289.93854,377.81223 288.87115,378.1742 288.42177,378.56701 C 288.06186,378.87859 287.71429,379.55111 287.71429,380.95476 L 287.71429,397.16308 C 287.71429,398.42688 288.2305,399.31637 289.51179,399.97655 C 290.80746,400.57709 291.91393,400.83417 292.90009,400.83417 L 308.94387,400.83417 L 309.90843,400.69535 C 311.7121,400.41462 312.77024,399.49633 313.2844,397.79344 L 313.38414,381.10695 L 313.38414,381.10695 z "
           id="path2543"
           style="fill:#ff9600;fill-rule:evenodd" />
        <polygon
           i:knockout="Off"
           points="238.184,205.427 238.184,156.296 248.574,156.296 248.574,205.427 238.184,205.427 "
           id="polygon2545"
           style="fill:#ff9600"
           transform="matrix(1.028316,0,0,1.028316,83.756087,197.16994)" />
        <path
           i:knockout="Off"
           clip-rule="evenodd"
           d="M 359.62546,408.41389 C 354.40161,408.41389 350.2102,407.22104 347.22294,404.63174 C 345.10255,402.85275 343.98169,400.62851 343.98169,397.99807 L 343.98169,381.4864 C 343.98169,373.59305 350.63797,370.15847 361.66975,370.15847 L 375.3772,370.15847 C 379.89768,370.15847 383.58316,370.95336 386.33494,372.69327 C 389.21936,374.42496 390.71762,376.98341 390.71762,380.27299 L 390.71762,385.21199 L 354.66589,396.34454 L 354.66589,397.01295 C 355.04739,398.95955 355.57595,399.80688 356.06748,400.18222 C 356.67419,400.54418 357.96781,400.8352 360.22908,400.8352 L 391.32535,400.8352 L 391.32535,408.41286 L 359.62546,408.41286 L 359.62546,408.41389 z M 380.03342,380.19895 C 380.03342,379.20251 379.69407,378.72229 379.24984,378.45184 C 378.67295,378.06622 377.39373,377.73922 375.15303,377.73922 L 360.07997,377.73922 C 357.85058,377.73922 356.49732,378.13718 355.76413,378.69555 C 355.11938,379.18812 354.66795,380.0591 354.66795,381.63757 L 354.66795,388.04295 L 380.03342,380.19895 L 380.03342,380.19895 z "
           id="path2547"
           style="fill:#ff9600;fill-rule:evenodd" />
        <path
           i:knockout="Off"
           d="M 410.9775,377.73922 L 409.3106,377.73922 C 408.97537,377.73922 408.24629,377.88421 407.03905,378.28731 C 406.51461,378.44567 406.1691,378.75931 406.1691,379.74341 L 406.1691,382.39441 C 406.1691,382.66588 406.29763,383.02682 406.76963,383.46077 C 407.46683,384.15797 408.60312,384.62585 410.36874,384.62585 L 424.09676,384.62791 L 426.69942,384.704 C 429.99723,385.24593 432.66263,386.26293 434.69252,387.84551 C 436.74916,389.44248 437.90396,391.44873 437.90396,393.83236 L 437.90396,399.58888 C 437.90396,401.27017 437.09673,402.86715 435.76917,404.35924 C 435.0586,405.23845 433.95728,406.01997 432.64823,406.70071 C 430.11138,407.81129 427.67941,408.41389 425.44179,408.41389 L 395.25661,408.41389 L 395.25661,400.83622 L 421.95683,400.83622 L 424.22838,400.83622 C 424.73843,400.83622 425.36364,400.64701 426.07421,400.18736 C 426.5205,399.92617 426.79917,399.60327 426.91948,399.36573 C 427.05831,399.13231 427.21872,398.64077 427.21872,397.84485 L 427.21872,395.04269 C 427.21872,393.98044 426.86498,393.43235 426.39299,393.11871 C 425.8161,392.70122 424.6212,392.35776 422.56251,392.35776 L 410.06641,392.35776 C 406.92079,392.35776 404.30065,392.05029 402.25738,391.386 C 400.19047,390.7176 398.49374,389.63478 397.16619,388.07791 C 396.04944,386.89946 395.48284,385.50712 395.48284,383.91014 L 395.48284,379.21485 C 395.48284,376.31706 396.73018,374.00746 399.15187,372.41254 C 401.50363,370.86184 404.65541,370.1595 408.47458,370.1595 L 438.05306,370.1595 L 438.05306,377.73922 L 410.9775,377.73922 L 410.9775,377.73922 z "
           id="path2549"
           style="fill:#ff9600" />
        <path
           i:knockout="Off"
           d="M 171.23899,367.817 C 169.43944,367.817 167.8291,367.4211 166.47686,366.56142 C 165.08452,365.67399 164.23102,364.40196 164.23102,362.77722 C 164.23102,361.26663 165.09789,360.09023 166.37711,359.23673 C 167.01159,358.74622 167.73655,358.39762 168.54583,358.1642 C 169.37568,357.92768 170.25078,357.81457 171.16187,357.81457 C 172.93777,357.81457 174.52035,358.24029 175.87156,359.16063 C 177.2423,360.05424 178.17087,361.27177 178.17087,362.85435 C 178.17087,364.39271 177.32148,365.60406 176.01758,366.47505 C 174.62832,367.38099 173.01489,367.817 171.23899,367.817 L 171.23899,367.817 z "
           id="path2799"
           style="fill:#0c479d" />
      </g>
    </g>
    <rect
       style="opacity:1;fill:#000000;fill-opacity:1;fill-rule:nonzero;stroke:#000000;stroke-width:0;stroke-linecap:butt;stroke-linejoin:miter;stroke-miterlimit:4;stroke-dasharray:none;stroke-opacity:1"
       id="rect3780"
       width="497.87756"
       height="16.440945"
       x="1.0612166"
       y="203.3819" />
    <text
       xml:space="preserve"
       style="font-style:normal;font-variant:normal;font-weight:normal;font-stretch:normal;line-height:0%;font-family:'DejaVu Sans';-inkscape-font-specification:'DejaVu Sans';text-align:start;writing-mode:lr-tb;text-anchor:start;fill:#000000;fill-opacity:1;stroke:none"
       x="10.096598"
       y="17.543539"
       id="text2806"><tspan
         sodipodi:role="line"
         id="tspan2420"
         x="10.096598"
         y="17.543539"
         style="font-size:12px;line-height:1">© 2005-2007 by Cárabos Coop. V.</tspan><tspan
         sodipodi:role="line"
         id="tspan2422"
         x="10.096598"
         y="29.543539"
         style="font-size:12px;line-height:1">© 2008-2019 by Vicent Mas</tspan></text>
  </g>
</svg>
